<svg version="1.1" id="Layer_1" xmlns="http://www.w3.org/2000/svg" xmlns:xlink="http://www.w3.org/1999/xlink" x="0px" y="0px"
	 width="100%" viewBox="0 0 1024 1024" enable-background="new 0 0 1024 1024" xml:space="preserve">
<path fill="#316044" opacity="1.000000" stroke="none" 
	d="
M928.000000,1025.000000 
	C618.666687,1025.000000 309.833344,1025.000000 1.000000,1025.000000 
	C1.000000,683.666687 1.000000,342.333344 1.000000,1.000000 
	C342.333344,1.000000 683.666687,1.000000 1025.000000,1.000000 
	C1025.000000,342.333344 1025.000000,683.666687 1025.000000,1025.000000 
	C992.833313,1025.000000 960.666687,1025.000000 928.000000,1025.000000 
M805.340820,543.209717 
	C805.706970,543.395569 806.073181,543.581421 806.196106,543.806519 
	C806.196106,543.806519 806.217651,543.561035 806.351440,544.190796 
	C806.719543,544.363220 807.087708,544.535583 807.221497,544.721252 
	C807.221497,544.721252 807.284485,544.495239 807.390930,545.176331 
	C807.987976,545.435486 808.585083,545.694702 809.605530,545.960754 
	C809.924438,546.049377 810.084778,546.259155 810.345154,547.216370 
	C810.945557,547.455383 811.546021,547.694397 812.064148,547.950806 
	C812.064148,547.950806 812.064087,547.866760 812.118164,548.620789 
	C813.471619,549.049316 814.825012,549.477783 816.059509,549.923706 
	C816.059509,549.923706 816.063477,549.803589 816.259460,550.540955 
	C819.455872,554.420959 823.873352,553.136169 827.683167,552.629639 
	C830.878479,552.204773 833.861633,550.184387 836.936829,548.953430 
	C836.936829,548.953430 836.855896,548.934937 837.507996,548.897644 
	C837.994873,548.549988 838.481750,548.202332 838.955811,547.961121 
	C838.955811,547.961121 838.851624,547.935791 839.492310,547.888306 
	C840.001282,547.576294 840.510254,547.264221 841.591248,546.595825 
	C846.741089,542.793762 843.888794,549.523254 845.902466,550.006775 
	C848.990112,550.190430 852.132202,550.483521 855.193604,550.111755 
	C858.558289,549.703186 861.848694,548.682617 865.678772,547.288879 
	C865.780151,546.637695 865.969971,545.986511 865.970276,545.335266 
	C865.984375,516.799744 865.993347,488.264191 865.942017,459.728760 
	C865.939819,458.495544 865.364014,457.263367 864.421692,455.479645 
	C858.059326,455.351654 851.696899,455.223663 844.503784,455.195343 
	C844.004944,456.781769 843.112610,458.359039 843.075439,459.956207 
	C842.914917,466.864319 843.151672,473.783691 842.894836,480.685974 
	C842.834106,482.317413 841.420349,483.898499 840.916870,485.031006 
	C840.828308,485.192474 840.739807,485.353912 840.566101,484.825317 
	C839.960449,484.615204 839.354797,484.405090 838.888855,484.160400 
	C838.888855,484.160400 838.880798,484.304108 838.627502,483.670654 
	C837.997314,483.518372 837.367065,483.366089 836.861389,483.177643 
	C836.861389,483.177643 836.847961,483.306580 836.707581,482.587677 
	C834.456970,482.091644 832.206299,481.595581 829.079590,481.270538 
	C818.704956,481.004700 809.100769,483.421326 803.123596,492.432922 
	C792.400696,508.599823 793.089478,525.001221 803.705139,541.245667 
	C803.966858,541.343201 804.228577,541.440735 804.386230,541.709595 
	C804.386230,541.709595 804.249695,541.562805 804.347961,542.198181 
	C804.707703,542.398071 805.067505,542.598022 805.176331,542.839478 
	C805.176331,542.839478 805.187073,542.585449 805.340820,543.209717 
M894.985657,529.025391 
	C894.985657,529.025391 894.971436,529.105835 894.861389,528.456421 
	C894.492065,527.978516 894.122803,527.500671 893.917480,527.008911 
	C893.917480,527.008911 893.917480,527.173523 893.953735,526.276001 
	C893.501953,523.130615 894.674683,521.883484 898.023254,521.933411 
	C909.265198,522.100769 920.511414,522.034119 931.755371,521.957458 
	C933.489441,521.945679 935.219971,521.411011 937.500183,520.887085 
	C937.726990,520.568359 937.953735,520.249634 938.371216,519.739990 
	C938.526306,519.509827 938.471863,519.290283 938.014526,518.202087 
	C937.134155,503.804993 934.082336,490.298737 918.823669,484.504974 
	C912.923889,482.264832 905.933899,481.000427 899.748169,481.768616 
	C882.042847,483.967407 873.341431,495.349518 871.166260,511.920654 
	C869.719543,522.941711 873.056824,533.371521 880.323792,541.371826 
	C886.423340,548.086731 895.764404,550.368408 904.642090,551.779968 
	C908.190491,552.344177 912.170959,550.811707 915.847168,549.830444 
	C925.813354,547.170349 933.357544,541.611816 937.072876,531.252197 
	C930.935669,529.833191 925.037659,528.469543 919.280640,527.138489 
	C914.661865,533.912903 904.316711,536.108093 897.642700,531.603455 
	C897.351562,531.450623 897.087341,531.260437 896.375549,530.983215 
	C896.056702,530.808411 895.918945,530.540527 895.717346,529.692322 
	C895.446411,529.467224 895.175415,529.242126 894.985657,529.025391 
M968.109680,506.795715 
	C968.232422,506.763428 968.355103,506.731171 968.477844,506.698883 
	C968.377991,506.486542 968.278137,506.274170 968.329041,505.399170 
	C973.582581,499.165131 980.880188,499.872711 988.240356,500.049011 
	C988.240356,493.576782 988.240356,487.514160 988.240356,481.432526 
	C979.020081,479.143890 971.651184,483.915894 964.072449,489.226196 
	C963.671204,486.430603 963.444763,484.852661 963.181091,483.015747 
	C956.663086,483.015747 950.368896,483.015747 943.451538,483.576019 
	C943.309509,484.217255 943.044128,484.858368 943.043335,485.499817 
	C943.017639,505.612946 943.002808,525.726135 943.056213,545.839111 
	C943.059021,546.893250 943.674988,547.945862 943.994324,548.996826 
	C943.994324,548.996826 943.995544,548.982910 944.614685,549.331909 
	C949.559814,549.750305 954.504883,550.168762 960.307312,549.764587 
	C961.862488,549.507385 963.417664,549.250244 965.602966,548.439087 
	C966.043396,535.244385 966.483765,522.049683 966.885071,509.027985 
	C966.885071,509.027985 966.713989,508.981293 967.329346,508.672577 
	C967.517761,508.039795 967.706238,507.407043 967.908813,506.941223 
	C967.908813,506.941223 967.741516,506.931946 968.109680,506.795715 
M641.645386,458.675568 
	C640.986694,458.546906 640.328003,458.418243 639.866272,458.247681 
	C639.866272,458.247681 639.847839,458.448242 639.612549,457.704803 
	C638.115051,457.083893 636.638733,455.983032 635.116882,455.916046 
	C619.208252,455.215881 603.293213,454.652100 587.375854,454.191895 
	C586.616150,454.169922 585.818298,455.469177 585.058960,456.607910 
	C585.058960,456.607910 584.896423,457.033173 584.473450,457.226990 
	C584.229797,457.449615 584.104065,457.725891 584.063782,458.985474 
	C584.051819,487.420685 584.024841,515.855896 584.068298,544.291077 
	C584.070679,545.854736 584.657654,547.417419 585.217346,549.121765 
	C585.217346,549.121765 585.148193,549.395752 585.246643,550.023193 
	C585.500732,550.348145 585.754883,550.673157 586.000000,551.000000 
	C586.000000,551.000000 586.001587,550.992554 586.440735,551.545715 
	C591.402588,554.904419 593.752075,554.789490 597.798645,550.979675 
	C598.865417,550.992737 599.932129,551.005859 601.145874,551.728699 
	C603.641907,552.762939 606.158936,554.727112 608.630310,554.671265 
	C619.603882,554.422852 630.570801,553.689941 641.527405,552.945557 
	C649.293213,552.417969 649.977539,551.043396 646.375305,544.293274 
	C646.375305,544.293274 646.636230,544.215027 647.328979,544.684570 
	C650.693787,545.509949 654.058655,546.335327 657.683960,547.224548 
	C657.619385,550.188965 656.635437,554.791626 662.805786,551.414734 
	C663.247925,551.172791 664.062317,551.648499 664.710754,551.740356 
	C670.301453,552.532043 675.896118,553.296204 681.482300,554.118103 
	C682.111816,554.210754 682.744385,554.533752 683.293579,554.879944 
	C686.627136,556.981323 687.844421,555.500244 688.804321,552.012512 
	C692.459717,550.768311 696.150330,549.617126 699.758850,548.249390 
	C702.484741,547.216125 705.259644,544.592896 707.148315,549.351746 
	C707.318665,549.780945 708.632080,549.951843 709.400085,549.917358 
	C715.274414,549.653381 721.145142,549.308533 727.623230,548.413269 
	C727.740173,547.932373 727.958801,547.451538 727.959351,546.970520 
	C727.981079,526.685852 727.999939,506.401093 727.940063,486.116638 
	C727.937012,485.086151 727.234741,484.057739 725.938965,483.040131 
	C719.351746,483.038574 712.764587,483.036987 705.484131,483.518463 
	C705.347534,495.999908 705.210938,508.481384 704.943237,521.733276 
	C704.322327,524.538025 703.701477,527.342773 703.059387,530.046875 
	C703.059387,530.046875 703.162170,530.042114 702.651428,530.238220 
	C702.444580,530.525696 702.237732,530.813171 702.034790,531.025574 
	C702.034790,531.025574 702.105774,531.050171 701.267456,531.019775 
	C698.185852,531.656372 695.104309,532.292908 691.466309,533.051514 
	C690.954773,532.884338 690.443237,532.717163 689.667358,531.873718 
	C689.039185,531.625366 688.410950,531.377075 687.915039,531.100830 
	C687.915039,531.100830 687.914001,531.235962 687.758667,530.670654 
	C687.440002,530.470032 687.121399,530.269348 686.918640,530.071594 
	C686.918640,530.071594 686.892029,530.184448 686.985962,529.304321 
	C686.660645,524.560181 686.131104,519.819397 686.053650,515.071167 
	C685.903076,505.835968 686.093201,496.594971 685.914673,487.360748 
	C685.886353,485.894867 684.671265,484.451965 684.010925,483.040253 
	C684.010925,483.040253 683.971008,483.054199 683.858948,482.346375 
	C682.286194,481.262512 680.646790,479.171600 679.152466,479.270599 
	C672.958252,479.681000 666.807922,480.753113 659.923828,481.678772 
	C659.682495,479.893066 659.615051,477.282867 658.906616,474.860138 
	C658.395874,473.113434 657.052307,471.603180 656.043640,470.010651 
	C654.038452,466.844696 651.599243,463.872070 650.126709,460.477936 
	C649.084656,458.076080 648.729370,455.854767 645.119995,456.568817 
	C645.434143,458.260406 645.697998,459.681091 645.407410,461.019226 
	C644.914856,460.854248 644.422302,460.689270 643.651794,459.853546 
	C643.010864,459.624786 642.369995,459.396027 641.920288,459.136230 
	C641.920288,459.136230 641.917175,459.329926 641.645386,458.675568 
M514.019226,539.966125 
	C514.019226,539.966125 514.040405,539.891907 514.134094,540.543457 
	C514.526428,541.002625 514.918823,541.461853 515.084290,541.946106 
	C515.084290,541.946106 515.080383,541.717834 515.280945,542.283081 
	C515.604614,542.500244 515.928284,542.717346 516.683655,543.021057 
	C516.958130,543.199524 517.082336,543.451965 517.281128,544.310059 
	C517.591248,544.527527 517.901367,544.744934 518.067322,544.945312 
	C518.067322,544.945312 518.103455,544.804688 518.115845,545.533325 
	C519.112244,546.007446 520.108582,546.481506 521.038086,546.987976 
	C521.038086,546.987976 521.039185,546.913696 521.083496,547.632751 
	C526.095947,549.383606 531.006836,551.687744 536.166809,552.634888 
	C538.493347,553.061890 541.316345,550.784546 543.946777,549.875000 
	C543.946777,549.875000 543.802490,549.881653 544.612244,549.930725 
	C547.676331,548.940918 550.740356,547.951111 553.968750,547.684998 
	C555.283081,548.497498 556.588684,549.983887 557.913330,550.001038 
	C562.612427,550.061707 567.324219,549.696655 572.016479,549.312988 
	C573.089722,549.225220 574.104004,548.417969 575.708862,547.340088 
	C575.800659,532.786499 575.915894,518.232910 575.936340,503.679199 
	C575.937866,502.608337 575.255615,501.536499 574.164917,500.361664 
	C573.270447,497.605743 573.077576,494.274689 571.366882,492.187836 
	C560.722717,479.203278 533.926697,476.834656 520.880859,487.938141 
	C517.042297,491.205170 514.377808,495.193268 514.049316,500.497070 
	C520.406921,501.554840 526.395325,502.551178 532.309082,503.535095 
	C535.245483,497.264221 540.572083,496.444763 546.252136,497.035248 
	C550.280518,497.454010 553.503357,499.358826 553.320312,504.578552 
	C551.955994,505.385284 550.635193,506.783844 549.219238,506.887939 
	C544.939758,507.202576 540.616760,506.882782 536.324951,507.095886 
	C534.866882,507.168304 533.451050,508.090485 531.337524,508.979034 
	C517.463989,508.994843 507.386108,524.972412 512.171570,536.445190 
	C512.464111,536.970642 512.756592,537.496094 513.198242,538.224243 
	C513.198242,538.224243 513.021301,538.403137 513.238403,539.032959 
	C513.523987,539.348633 513.809570,539.664246 514.019226,539.966125 
M325.619385,524.130127 
	C325.619385,524.130127 325.713806,524.281799 325.904541,523.509949 
	C325.395020,522.775879 324.885498,522.041809 324.495270,521.117126 
	C324.495270,521.117126 324.685364,521.237244 324.899445,520.398193 
	C324.275085,517.863342 326.125702,514.041382 321.367371,513.290527 
	C321.367371,513.290527 321.710175,513.194702 321.895142,512.392334 
	C321.242096,509.664673 320.898773,506.809296 319.842346,504.248016 
	C318.923950,502.021332 317.199402,500.127167 315.925751,498.075073 
	C315.925751,498.075073 315.913422,498.169586 315.947754,497.337128 
	C314.320251,490.933167 313.671997,484.136749 308.823578,479.075409 
	C308.823578,479.075409 308.807068,479.261566 308.933746,478.467712 
	C308.218292,476.999695 307.502869,475.531708 306.915100,474.055847 
	C306.915100,474.055847 306.900879,474.182953 306.942688,473.341034 
	C306.188080,470.050507 305.508759,466.738617 304.588440,463.495117 
	C304.466278,463.064606 303.118591,462.981812 302.287384,462.343903 
	C302.287384,462.343903 302.657410,462.199005 302.891388,461.388885 
	C302.935516,458.926331 303.281708,456.278259 298.763428,456.297058 
	C293.115936,456.315216 287.452576,456.594116 281.827087,456.251343 
	C278.576202,456.053284 277.048920,457.199402 276.106995,460.097382 
	C274.653015,464.570862 273.057648,469.002350 271.392303,473.402435 
	C265.750610,488.308594 260.051819,503.193085 253.809937,518.362427 
	C252.586792,522.314575 251.363663,526.266724 250.142624,530.071228 
	C250.142624,530.071228 250.286407,530.104858 249.554321,530.249817 
	C247.739639,535.562134 245.924957,540.874512 244.098907,546.090698 
	C244.098907,546.090698 244.194046,546.108765 243.684006,546.076477 
	C243.749176,546.705872 243.814331,547.335266 244.000900,548.682007 
	C243.982162,548.923767 243.963425,549.165588 244.358032,550.035034 
	C244.833481,550.619202 245.299210,551.702271 245.785858,551.711792 
	C251.919525,551.831360 258.077423,552.075317 264.177948,551.612732 
	C265.794800,551.490112 267.833588,549.353210 268.636292,547.649963 
	C270.308136,544.102417 271.522858,540.285767 272.465515,536.466187 
	C273.152374,533.683289 274.417145,532.731140 277.252350,532.811218 
	C283.716583,532.993958 290.213654,533.204590 296.651825,532.753418 
	C302.112976,532.370667 305.550323,533.946472 306.808075,539.521484 
	C307.015076,540.438965 308.121002,541.153687 309.070801,542.661133 
	C309.172821,543.615112 309.274872,544.569153 309.020844,545.724060 
	C309.019348,545.895813 309.017853,546.067566 309.016327,546.239319 
	C309.173859,546.038696 309.331360,545.838135 310.045654,545.872192 
	C310.328613,546.588684 310.611572,547.305115 310.578949,548.231140 
	C310.752991,548.478149 310.927032,548.725098 311.930634,549.604126 
	C311.991058,549.946472 312.051453,550.288818 312.409180,551.103027 
	C313.623108,551.385254 314.856171,551.973450 316.047699,551.898865 
	C322.556427,551.490906 329.054291,550.528870 335.557129,550.518250 
	C341.723602,550.508240 347.886139,551.626282 354.063202,551.802979 
	C355.410919,551.841492 356.812714,549.990601 358.920929,548.725403 
	C359.277435,546.871582 359.939880,545.018555 359.944580,543.163818 
	C360.016174,514.773804 360.002014,486.383545 360.003632,457.214172 
	C358.456360,455.829987 357.023804,453.445282 355.339935,453.252167 
	C350.583923,452.706696 345.702698,452.785645 340.915466,453.172058 
	C338.417603,453.373657 335.317810,454.051331 336.017487,458.674988 
	C336.018646,459.123566 336.019806,459.572113 335.492035,460.614380 
	C335.670593,463.733185 335.849152,466.852020 336.029877,470.657013 
	C336.029175,471.114471 336.028503,471.571930 335.482849,472.641083 
	C335.664551,477.084290 335.846222,481.527496 336.030243,486.657227 
	C336.029663,487.114899 336.029083,487.572540 335.479126,488.646973 
	C335.335602,492.079468 334.995300,495.517731 335.095184,498.943115 
	C335.241302,503.956207 335.702972,508.960144 336.028564,514.909302 
	C336.026489,523.949341 336.024414,532.989441 335.244934,542.015015 
	C333.540192,538.653748 331.927277,535.240417 330.072449,531.964111 
	C329.543457,531.029724 328.312073,530.493103 327.210632,529.538269 
	C327.210632,529.538269 327.279510,529.242004 327.730988,528.635620 
	C327.509613,527.754761 327.288208,526.873840 326.960175,525.333862 
	C326.470642,524.974182 325.981110,524.614563 325.619385,524.130127 
M502.888092,492.084747 
	C502.888092,492.084747 502.855194,492.201904 502.951447,491.494171 
	C502.350037,490.669159 501.748627,489.844147 500.777924,488.390686 
	C488.713470,478.310852 476.228943,478.905029 462.955383,487.486633 
	C462.955383,476.437195 462.955383,465.944824 462.955383,455.496796 
	C456.028870,455.496796 449.600586,455.496796 443.005310,455.496796 
	C442.941071,456.782043 442.885132,457.901031 442.069031,459.234344 
	C441.734924,459.760925 441.115326,460.284424 441.109650,460.814514 
	C441.029053,468.377625 440.974579,475.942535 441.094208,483.504150 
	C441.107422,484.338715 442.231232,485.155701 443.006653,486.809326 
	C442.953033,488.212372 442.899414,489.615417 442.093109,491.220764 
	C440.787384,494.917206 439.444244,498.616272 443.013123,502.893616 
	C442.956879,506.601959 442.900635,510.310272 442.142365,514.182068 
	C440.648346,516.324951 439.735138,518.397339 443.010345,520.832458 
	C442.956329,522.561035 442.902283,524.289612 442.091858,526.221680 
	C440.742340,530.244751 439.369354,534.269287 443.012634,538.901123 
	C443.012634,542.311707 443.012634,545.722290 443.012634,549.045532 
	C450.176392,549.045532 456.738953,549.045532 464.005463,548.704102 
	C464.334442,548.008118 464.945679,547.313843 464.950104,546.615845 
	C465.015411,536.229614 465.028503,525.842590 464.948792,515.456665 
	C464.942688,514.661255 464.146606,513.871948 463.538147,512.310303 
	C463.665497,510.651703 463.669647,508.972534 463.942902,507.338318 
	C464.837860,501.985291 469.290680,499.492096 477.021973,499.917542 
	C483.107300,500.252411 484.350098,501.536316 484.305481,508.631287 
	C484.211884,521.365295 484.102173,534.099243 484.066833,546.833435 
	C484.064850,547.553650 484.672943,548.275635 485.709198,549.295959 
	C492.523865,549.190552 499.338562,549.085083 506.909241,548.746826 
	C507.269592,548.055420 507.941467,547.365173 507.944214,546.672363 
	C507.997742,533.185669 508.291565,519.686401 507.772308,506.219177 
	C507.614807,502.134247 505.165802,498.137665 503.885590,494.102814 
	C503.885590,494.102814 503.850098,494.216675 503.874084,493.545288 
	C503.504883,493.057709 503.135651,492.570129 502.888092,492.084747 
M387.808136,482.260559 
	C381.626160,482.024658 375.444855,481.760315 369.260681,481.617310 
	C368.852448,481.607910 368.422852,482.524048 368.002136,482.998138 
	C368.002136,482.998138 368.014648,483.006042 367.243988,483.257690 
	C366.830017,484.569794 366.058105,485.881012 366.054718,487.194153 
	C365.983582,514.762268 365.974091,542.330750 366.073212,569.898743 
	C366.078094,571.259338 367.178955,572.615967 368.280151,574.708679 
	C374.969452,574.469666 381.658752,574.230591 389.114288,573.540649 
	C389.409851,571.971680 389.932770,570.406616 389.960297,568.832947 
	C390.061768,563.033813 389.874359,557.227295 390.079224,551.433594 
	C390.136017,549.827087 391.174469,548.255249 392.417786,546.887146 
	C393.941986,547.891663 395.379517,549.073364 397.005859,549.869080 
	C402.927246,552.766052 408.662292,551.895752 414.942780,550.153687 
	C421.283752,548.394836 425.674896,545.119080 429.327728,540.005249 
	C436.227539,530.345764 437.223846,519.796631 436.226959,508.195740 
	C435.275848,497.127686 422.987000,482.838196 412.844910,481.087769 
	C409.392334,477.357880 405.439270,479.078369 401.523926,480.000183 
	C397.005707,481.063965 392.463593,482.026123 387.975372,482.992188 
	C387.975372,482.992188 387.976013,483.051453 387.808136,482.260559 
M737.496582,549.461792 
	C744.252930,549.385132 751.009338,549.308472 758.449646,548.655212 
	C758.621948,547.856628 758.943665,547.058167 758.944763,546.259338 
	C758.972839,526.357239 758.987488,506.454987 758.915527,486.553070 
	C758.911255,485.383362 758.160583,484.216339 756.850525,483.059296 
	C753.751282,483.045502 750.644348,482.888428 747.554871,483.055328 
	C743.958984,483.249603 740.378479,483.727509 736.293762,484.727631 
	C736.201172,505.415955 736.098755,526.104309 736.056274,546.792664 
	C736.054810,547.520325 736.648254,548.249207 737.496582,549.461792 
M788.439270,455.475983 
	C782.312988,455.397369 776.186035,455.254456 770.061401,455.322266 
	C769.303955,455.330658 768.558838,456.460785 767.265930,457.686798 
	C767.183167,458.175507 767.028137,458.664124 767.027832,459.152893 
	C767.008423,487.880524 766.989624,516.608154 767.036011,545.335754 
	C767.037964,546.556335 767.656128,547.775818 768.524414,549.457275 
	C775.360901,549.297363 782.197327,549.137451 789.629028,548.395874 
	C789.741699,547.746948 789.952576,547.098022 789.953003,546.449036 
	C789.971191,517.553589 789.981995,488.658081 789.934631,459.762726 
	C789.932556,458.521423 789.372864,457.281036 788.439270,455.475983 
M214.366440,602.093811 
	C214.758392,602.366089 215.148804,602.873657 215.542526,602.876160 
	C225.838165,602.942932 236.134552,603.000183 246.429352,602.903687 
	C247.303299,602.895569 248.167068,601.800537 248.920471,600.490112 
	C236.099167,578.364014 223.277863,556.237976 210.397766,534.010437 
	C201.566711,539.617676 193.210449,544.923462 184.797028,550.265564 
	C194.690125,567.550354 204.376877,584.474670 214.366440,602.093811 
M38.436485,602.024170 
	C39.160397,602.336914 39.882927,602.918701 40.608421,602.922363 
	C52.842876,602.985168 65.077972,603.010071 77.311859,602.911377 
	C78.193161,602.904236 79.066269,601.879517 80.594627,600.974182 
	C82.036720,599.966675 83.433075,598.885071 84.927681,597.962708 
	C113.037895,580.615051 141.156570,563.281067 169.280441,545.955627 
	C184.659195,536.481628 200.050858,527.028687 215.625137,517.450378 
	C194.187546,480.397766 172.919266,443.637848 151.398071,406.440735 
	C150.072876,408.562286 148.984711,410.204498 147.994858,411.903931 
	C131.047348,441.000824 114.089157,470.091583 97.179939,499.210693 
	C77.443855,533.197937 57.752911,567.211365 38.436485,602.024170 
M737.207825,459.848999 
	C734.081726,463.764404 734.445129,467.866852 736.917480,471.819214 
	C739.590576,476.092468 743.605103,478.832214 748.678528,477.828491 
	C753.565369,476.861694 757.600586,473.908051 758.905945,468.679932 
	C759.863953,464.842865 759.459106,460.717865 756.264648,458.194427 
	C750.576904,453.701508 743.946655,454.353485 737.207825,459.848999 
z"/>
<path fill="#FEFEFE" opacity="1.000000" stroke="none" 
	d="
M38.042374,601.213379 
	C57.752911,567.211365 77.443855,533.197937 97.179939,499.210693 
	C114.089157,470.091583 131.047348,441.000824 147.994858,411.903931 
	C148.984711,410.204498 150.072876,408.562286 151.398071,406.440735 
	C172.919266,443.637848 194.187546,480.397766 215.625137,517.450378 
	C200.050858,527.028687 184.659195,536.481628 169.280441,545.955627 
	C141.156570,563.281067 113.037895,580.615051 84.927681,597.962708 
	C83.433075,598.885071 82.036720,599.966675 79.804367,601.129395 
	C65.356865,601.260864 51.699615,601.237122 38.042374,601.213379 
M123.977974,514.486084 
	C117.094818,526.272644 110.211670,538.059265 103.328514,549.845825 
	C103.670540,550.165344 104.012573,550.484802 104.354607,550.804260 
	C127.975822,536.355286 151.597031,521.906311 175.360397,507.370392 
	C167.300430,493.878174 159.607468,481.000305 151.722305,467.800720 
	C146.848526,475.866089 142.327698,483.235840 137.919846,490.672546 
	C133.354172,498.375519 128.897995,506.143402 123.977974,514.486084 
z"/>
<path fill="#FCFCFC" opacity="1.000000" stroke="none" 
	d="
M643.929749,460.524292 
	C644.422302,460.689270 644.914856,460.854248 645.714844,461.423096 
	C651.309692,467.750671 654.289124,474.459564 653.447449,482.613525 
	C652.562073,491.190674 647.881653,496.955170 639.498169,500.803467 
	C643.381958,502.533203 646.477722,503.912018 649.624512,505.323364 
	C649.675476,505.355957 649.747559,505.453125 649.749878,505.782776 
	C651.440552,507.588837 653.128906,509.065247 654.725647,510.923523 
	C655.029968,511.957031 655.425842,512.608704 655.816895,513.161865 
	C655.812073,513.063354 655.620117,513.108704 655.698120,513.445984 
	C656.145874,514.590881 656.515686,515.398438 656.895325,516.131470 
	C656.905151,516.056824 656.754700,516.061035 656.794983,516.423157 
	C656.949097,517.502380 657.062988,518.219421 657.139893,519.226807 
	C657.181702,519.695435 657.260559,519.873901 657.251160,520.507568 
	C656.621277,525.240417 656.079590,529.518127 655.613708,533.788696 
	C655.689575,533.781616 655.598694,533.659363 655.360352,533.861755 
	C654.940247,534.667664 654.758423,535.271240 654.707336,535.885376 
	C654.838135,535.895996 654.817749,535.634338 654.559204,535.765869 
	C654.167358,536.255127 654.034119,536.612793 653.938293,536.965881 
	C653.975647,536.961243 653.955017,536.888855 653.708435,537.078613 
	C653.188599,537.821411 652.915344,538.374573 652.366821,539.138855 
	C650.273132,540.971680 648.454712,542.593384 646.636230,544.215027 
	C646.636230,544.215027 646.375305,544.293274 646.055176,544.539917 
	C644.993286,545.565308 644.251587,546.344116 643.152588,547.090454 
	C642.196106,547.431458 641.596863,547.804749 640.642517,548.083862 
	C635.485962,548.532715 630.684448,549.075745 625.477905,549.566284 
	C612.032898,549.632202 598.992920,549.750732 585.770264,549.719482 
	C585.587463,549.569824 585.148193,549.395752 585.148193,549.395752 
	C585.148193,549.395752 585.217346,549.121765 585.160950,548.587646 
	C585.144287,521.010925 585.194885,493.968414 585.208130,466.925873 
	C585.209595,463.954834 584.997192,460.983704 584.940430,457.768433 
	C584.963379,457.360535 584.929932,457.196838 584.896423,457.033173 
	C584.896423,457.033173 585.058960,456.607910 585.508667,456.300385 
	C603.919617,456.854218 622.055420,453.882721 639.847839,458.448242 
	C639.847839,458.448242 639.866272,458.247681 639.961914,458.525665 
	C640.677490,458.979065 641.297302,459.154480 641.917175,459.329926 
	C641.917175,459.329926 641.920288,459.136230 642.012573,459.427795 
	C642.713135,459.987671 643.321411,460.255981 643.929749,460.524292 
M628.069946,476.922577 
	C628.069946,476.922577 628.160522,476.897491 627.837219,476.373901 
	C627.279114,476.128052 626.721069,475.882202 626.127319,475.778656 
	C626.127319,475.778656 626.272949,475.761078 625.714905,475.170776 
	C619.798706,474.847168 613.882507,474.523529 607.085815,474.327209 
	C607.085815,480.750732 607.085815,487.174225 607.085815,493.826080 
	C612.007263,493.826080 616.961243,493.826080 622.648438,494.000122 
	C627.106689,493.265106 629.260437,490.252960 630.873047,485.627747 
	C630.277405,483.037811 629.681763,480.447906 629.060974,477.935913 
	C629.060974,477.935913 629.142578,477.942291 628.980042,477.411865 
	C628.675903,477.217468 628.371765,477.023071 628.069946,476.922577 
M631.909363,514.265381 
	C630.501526,513.243652 629.177917,511.500580 627.671265,511.324585 
	C621.023804,510.548035 614.323669,510.222961 607.538818,509.726776 
	C607.538818,517.818237 607.538818,524.853943 607.538818,532.056335 
	C611.026306,532.056335 614.205994,532.315796 617.323059,531.985107 
	C620.590454,531.638428 623.797791,530.725525 627.770996,530.025940 
	C634.927612,526.659363 636.537659,521.002808 631.909363,514.265381 
z"/>
<path fill="#FAFBFB" opacity="1.000000" stroke="none" 
	d="
M243.944702,549.407349 
	C243.963425,549.165588 243.982162,548.923767 244.030304,548.020996 
	C244.104477,546.942871 244.149261,546.525818 244.194046,546.108765 
	C244.194046,546.108765 244.098907,546.090698 244.416595,545.948120 
	C246.584991,540.572021 248.435699,535.338440 250.286407,530.104858 
	C250.286407,530.104858 250.142624,530.071228 250.425751,529.913574 
	C251.930862,525.865845 253.152847,521.975891 254.374832,518.085876 
	C260.051819,503.193085 265.750610,488.308594 271.392303,473.402435 
	C273.057648,469.002350 274.653015,464.570862 276.106995,460.097382 
	C277.048920,457.199402 278.576202,456.053284 281.827087,456.251343 
	C287.452576,456.594116 293.115936,456.315216 299.314301,456.530090 
	C300.795929,458.575073 301.726654,460.387024 302.657410,462.199005 
	C302.657410,462.199005 302.287384,462.343903 302.440887,462.867310 
	C304.029907,466.988159 305.465393,470.585541 306.900879,474.182953 
	C306.900879,474.182953 306.915100,474.055847 306.903687,474.415466 
	C307.530518,476.270599 308.168793,477.766083 308.807068,479.261566 
	C308.807068,479.261566 308.823578,479.075409 308.820618,479.467041 
	C311.182892,485.962341 313.548157,492.065948 315.913422,498.169586 
	C315.913422,498.169586 315.925751,498.075073 315.925018,498.459839 
	C317.852905,503.627960 319.781555,508.411346 321.710175,513.194702 
	C321.710175,513.194702 321.367371,513.290527 321.507904,513.789307 
	C322.660736,516.604431 323.673065,518.920837 324.685364,521.237244 
	C324.685364,521.237244 324.495270,521.117126 324.504364,521.545776 
	C324.913574,522.743591 325.313690,523.512695 325.713806,524.281799 
	C325.713806,524.281799 325.619385,524.130127 325.645111,524.488342 
	C325.822845,525.227478 325.974884,525.608459 326.077972,526.294067 
	C326.445862,527.479858 326.862671,528.360962 327.279510,529.242004 
	C327.279510,529.242004 327.210632,529.538269 327.439575,529.981689 
	C329.876923,536.569702 332.085297,542.714355 334.491058,549.408203 
	C329.837982,549.408203 325.740387,549.253235 321.660858,549.457825 
	C318.466278,549.617981 315.294037,550.223511 312.111877,550.631165 
	C312.051453,550.288818 311.991058,549.946472 311.489319,549.045044 
	C311.047974,548.485901 310.894531,548.021606 310.894531,548.021606 
	C310.611572,547.305115 310.328613,546.588684 309.726166,545.739136 
	C309.406677,545.606018 309.376923,545.523132 309.376923,545.523132 
	C309.274872,544.569153 309.172821,543.615112 308.949005,541.938477 
	C308.119049,539.013794 307.187317,536.854858 306.752716,534.600037 
	C306.015778,530.776489 304.009918,529.807617 300.163025,530.002319 
	C292.572052,530.386475 284.939087,530.252625 277.337097,529.968994 
	C273.856476,529.839111 271.834290,530.575500 270.967041,534.286865 
	C270.031616,538.290161 268.134888,542.073059 267.253387,546.083191 
	C266.585754,549.120178 265.064087,549.623596 262.374481,549.543213 
	C256.235352,549.359863 250.088455,549.436401 243.944702,549.407349 
M296.343079,503.813965 
	C294.967560,500.140137 293.592072,496.466309 292.153229,492.040100 
	C291.053619,488.951874 289.954010,485.863647 288.550781,481.922729 
	C284.773438,493.208832 281.351898,503.431915 277.874420,513.822021 
	C285.503296,513.822021 292.573639,513.822021 300.104340,513.822021 
	C299.052216,511.278656 298.129547,509.048279 297.181305,506.211761 
	C296.986603,505.648407 296.791931,505.085022 296.343079,503.813965 
z"/>
<path fill="#FDFDFD" opacity="1.000000" stroke="none" 
	d="
M865.171448,547.928711 
	C861.848694,548.682617 858.558289,549.703186 855.193604,550.111755 
	C852.132202,550.483521 848.990112,550.190430 845.902466,550.006775 
	C843.888794,549.523254 846.741089,542.793762 840.988403,546.721924 
	C839.874207,547.210632 839.362915,547.573181 838.851624,547.935791 
	C838.851624,547.935791 838.955811,547.961121 838.656250,547.962280 
	C837.856445,548.287292 837.356140,548.611145 836.855896,548.934937 
	C836.855896,548.934937 836.936829,548.953430 836.546387,548.975891 
	C829.562744,551.868408 822.838928,551.481201 816.063477,549.803589 
	C816.063477,549.803589 816.059509,549.923706 815.900818,549.659790 
	C814.516113,548.886169 813.290100,548.376465 812.064087,547.866760 
	C812.064087,547.866760 812.064148,547.950806 811.926453,547.680542 
	C811.221313,547.136902 810.653931,546.863525 810.086487,546.590210 
	C810.084778,546.259155 809.924438,546.049377 809.216064,545.709717 
	C808.312561,545.137512 807.798523,544.816345 807.284485,544.495239 
	C807.284485,544.495239 807.221497,544.721252 807.233032,544.431763 
	C806.902283,543.948486 806.559937,543.754761 806.217651,543.561035 
	C806.217651,543.561035 806.196106,543.806519 806.203857,543.502808 
	C805.870117,542.994507 805.528564,542.789978 805.187073,542.585449 
	C805.187073,542.585449 805.176331,542.839478 805.194580,542.533447 
	C804.891785,542.005859 804.570740,541.784302 804.249695,541.562805 
	C804.249695,541.562805 804.386230,541.709595 804.357178,541.455811 
	C804.328186,541.202087 804.018188,540.993652 804.018188,540.993652 
	C793.089478,525.001221 792.400696,508.599823 803.123596,492.432922 
	C809.100769,483.421326 818.704956,481.004700 829.799927,481.412354 
	C832.629517,482.138336 834.738770,482.722443 836.847961,483.306580 
	C836.847961,483.306580 836.861389,483.177643 836.984741,483.447174 
	C837.698975,483.912506 838.289917,484.108337 838.880798,484.304138 
	C838.880798,484.304108 838.888855,484.160400 838.971558,484.434265 
	C839.586548,484.977234 840.118896,485.246307 840.651245,485.515350 
	C840.739807,485.353912 840.828308,485.192474 841.002563,485.513489 
	C842.275391,486.915009 843.462646,487.834045 845.334534,489.283051 
	C845.334534,477.286499 845.334534,466.191101 845.334534,455.095703 
	C851.696899,455.223663 858.059326,455.351654 864.716919,456.221191 
	C865.065247,487.284698 865.118347,517.606689 865.171448,547.928711 
M840.524292,502.375671 
	C840.524292,502.375671 840.409241,502.285522 839.994141,501.826263 
	C839.654663,501.857635 839.315125,501.889038 838.245728,501.670898 
	C833.525940,499.209686 828.767456,498.936707 823.408936,501.500000 
	C822.797668,501.832062 822.186462,502.164124 821.692261,502.465179 
	C821.692261,502.465179 821.591370,502.531555 821.116943,502.791840 
	C820.930115,503.095642 820.743286,503.399445 820.735535,503.813995 
	C820.735535,503.813995 820.606506,503.647522 820.061035,504.115601 
	C816.457642,510.442474 816.076111,517.087524 818.007263,524.375427 
	C817.993652,524.687439 818.124268,524.917419 818.635315,525.743896 
	C819.401794,526.910828 820.168274,528.077759 821.005676,529.679932 
	C821.172180,529.968567 821.421143,530.096191 822.025452,530.552612 
	C822.342346,530.732239 822.659180,530.911865 822.971924,531.018494 
	C822.971924,531.018494 822.903809,531.045227 823.372803,531.619446 
	C828.905457,533.989136 834.300903,534.328552 839.004333,530.319885 
	C839.004333,530.319885 839.416443,530.550293 839.944031,530.300598 
	C840.317627,529.876770 840.691162,529.453003 841.000183,529.013000 
	C841.000183,529.013000 841.031860,529.071533 841.590759,528.702698 
	C842.180908,527.513672 842.770996,526.324646 843.200439,525.138245 
	C843.200439,525.138245 843.255981,525.289062 843.821655,524.739258 
	C844.916138,518.701904 846.259277,512.655518 843.137512,506.897827 
	C843.137512,506.897827 843.269226,506.892242 843.164917,506.268005 
	C842.832947,505.769592 842.500916,505.271210 842.137390,504.887817 
	C842.137390,504.887817 842.256348,504.880188 842.106384,504.355499 
	C841.880920,504.084686 841.655457,503.813843 841.489197,503.715820 
	C841.489197,503.715820 841.499695,503.533478 841.299866,503.110046 
	C841.134338,502.833557 840.905579,502.627380 840.524292,502.375671 
z"/>
<path fill="#FDFDFD" opacity="1.000000" stroke="none" 
	d="
M412.980225,481.831360 
	C422.987000,482.838196 435.275848,497.127686 436.226959,508.195740 
	C437.223846,519.796631 436.227539,530.345764 429.327728,540.005249 
	C425.674896,545.119080 421.283752,548.394836 414.942780,550.153687 
	C408.662292,551.895752 402.927246,552.766052 397.005859,549.869080 
	C395.379517,549.073364 393.941986,547.891663 391.914978,546.526550 
	C390.772522,545.656616 390.132904,545.147339 389.290588,544.410278 
	C388.827118,544.471130 388.566315,544.759827 388.272369,545.512817 
	C388.275513,555.315247 388.311768,564.653442 388.348053,573.991577 
	C381.658752,574.230591 374.969452,574.469666 368.070251,573.876282 
	C367.911804,543.031250 367.963226,513.018677 368.014648,483.006042 
	C368.014648,483.006042 368.002136,482.998138 368.470764,483.013916 
	C375.284943,483.036957 381.630493,483.044220 387.976013,483.051453 
	C387.976013,483.051453 387.975372,482.992188 388.096558,483.394897 
	C388.217712,485.394684 388.217712,486.991791 388.217712,488.729828 
	C397.273102,481.940643 401.406433,480.804321 412.980225,481.831360 
M390.754852,504.844238 
	C390.754852,504.844238 390.701202,504.652496 390.197906,505.011536 
	C389.956360,505.581482 389.714783,506.151428 389.563690,506.871490 
	C389.563690,506.871490 389.710571,506.775909 389.094910,507.199493 
	C387.461060,513.605164 386.600006,519.977844 389.931763,526.057495 
	C389.931763,526.057495 389.813232,526.049072 389.946564,526.638733 
	C390.285736,527.122986 390.624878,527.607239 390.993530,528.027344 
	C390.993530,528.027344 390.922913,528.026733 391.063934,528.569031 
	C391.357635,528.792297 391.651306,529.015625 392.023071,529.677551 
	C392.194824,529.966187 392.447723,530.092896 393.144348,530.639526 
	C393.747070,530.959106 394.349792,531.278625 395.574036,531.999146 
	C408.027100,533.793030 415.115021,531.175659 415.289642,517.489441 
	C415.300140,516.667725 415.637970,515.838745 415.583038,515.029480 
	C415.201782,509.411194 414.480621,503.618988 408.444885,501.302521 
	C402.933838,499.187500 397.035217,497.993500 391.403870,503.152863 
	C391.121216,503.713409 390.838593,504.273956 390.754852,504.844238 
z"/>
<path fill="#FDFDFD" opacity="1.000000" stroke="none" 
	d="
M484.885040,508.040680 
	C484.350098,501.536316 483.107300,500.252411 477.021973,499.917542 
	C469.290680,499.492096 464.837860,501.985291 463.942902,507.338318 
	C463.669647,508.972534 463.665497,510.651703 463.485352,513.138672 
	C463.388855,525.659851 463.345184,537.352661 463.301514,549.045532 
	C456.738953,549.045532 450.176392,549.045532 443.012634,549.045532 
	C443.012634,545.722290 443.012634,542.311707 442.991089,537.985596 
	C442.929138,533.386169 442.888702,529.702148 442.848267,526.018188 
	C442.902283,524.289612 442.956329,522.561035 442.989258,519.984253 
	C442.926910,517.430298 442.885681,515.724426 442.844421,514.018616 
	C442.900635,510.310272 442.956879,506.601959 442.991943,501.984558 
	C442.929077,497.723145 442.887451,494.370789 442.845825,491.018463 
	C442.899414,489.615417 442.953033,488.212372 442.984619,485.931213 
	C442.918121,476.375397 442.873688,467.697693 442.829224,459.020020 
	C442.885132,457.901031 442.941071,456.782043 443.005310,455.496796 
	C449.600586,455.496796 456.028870,455.496796 462.955383,455.496796 
	C462.955383,465.944824 462.955383,476.437195 462.955383,487.486633 
	C476.228943,478.905029 488.713470,478.310852 500.920044,489.021240 
	C501.659882,490.501831 502.257538,491.351868 502.855194,492.201904 
	C502.855194,492.201904 502.888092,492.084747 502.897400,492.386993 
	C503.221161,493.198364 503.535645,493.707520 503.850098,494.216675 
	C503.850098,494.216675 503.885590,494.102814 503.886444,494.497009 
	C504.597565,499.114929 505.829681,503.327301 505.922150,507.564514 
	C506.223358,521.364685 506.108185,535.173889 506.153229,548.979614 
	C499.338562,549.085083 492.523865,549.190552 485.355652,548.678101 
	C484.963104,534.720337 484.924072,521.380493 484.885040,508.040680 
z"/>
<path fill="#FCFDFC" opacity="1.000000" stroke="none" 
	d="
M512.042603,535.806213 
	C507.386108,524.972412 517.463989,508.994843 532.145020,508.739075 
	C539.943237,508.499084 546.933960,508.499084 554.086792,508.499084 
	C553.975708,506.334381 553.917236,505.195160 553.858826,504.055969 
	C553.503357,499.358826 550.280518,497.454010 546.252136,497.035248 
	C540.572083,496.444763 535.245483,497.264221 532.309082,503.535095 
	C526.395325,502.551178 520.406921,501.554840 514.049316,500.497070 
	C514.377808,495.193268 517.042297,491.205170 520.880859,487.938141 
	C533.926697,476.834656 560.722717,479.203278 571.366882,492.187836 
	C573.077576,494.274689 573.270447,497.605743 574.424377,500.914978 
	C574.789307,503.275757 574.977539,505.082733 574.987122,506.890656 
	C575.059631,520.574280 575.097046,534.258057 575.145386,547.941833 
	C574.104004,548.417969 573.089722,549.225220 572.016479,549.312988 
	C567.324219,549.696655 562.612427,550.061707 557.913330,550.001038 
	C556.588684,549.983887 555.283081,548.497498 553.805054,546.956665 
	C550.361755,547.446167 547.082153,548.663940 543.802490,549.881653 
	C543.802490,549.881653 543.946777,549.875000 543.513062,549.871460 
	C535.253479,552.457458 528.018127,550.641968 521.039185,546.913696 
	C521.039185,546.913696 521.038086,546.987976 520.874146,546.730164 
	C519.841248,545.916443 518.972351,545.360596 518.103455,544.804688 
	C518.103455,544.804688 518.067322,544.945312 518.024475,544.688599 
	C517.673218,544.214050 517.364746,543.996216 517.056335,543.778320 
	C517.082336,543.451965 516.958130,543.199524 516.346191,542.709167 
	C515.699280,542.170776 515.389832,541.944336 515.080383,541.717834 
	C515.080383,541.717834 515.084290,541.946106 515.100037,541.640625 
	C514.757324,540.854126 514.398865,540.373047 514.040405,539.891907 
	C514.040405,539.891907 514.019226,539.966125 513.982178,539.642944 
	C513.637207,539.014282 513.329224,538.708679 513.021301,538.403137 
	C513.021301,538.403137 513.198242,538.224243 513.097778,537.800964 
	C512.679077,536.853882 512.360840,536.330017 512.042603,535.806213 
M550.064880,530.524231 
	C553.256470,528.496521 554.962219,525.886047 553.598938,522.008789 
	C548.469116,522.008789 543.410034,521.374634 538.638123,522.270203 
	C536.168274,522.733704 533.221191,525.574219 532.401123,527.989685 
	C531.938782,529.351257 534.971313,532.651184 537.110352,533.991394 
	C541.913391,537.000671 545.571838,533.043213 550.064880,530.524231 
z"/>
<path fill="#FDFDFD" opacity="1.000000" stroke="none" 
	d="
M898.003113,531.931824 
	C904.316711,536.108093 914.661865,533.912903 919.280640,527.138489 
	C925.037659,528.469543 930.935669,529.833191 937.072876,531.252197 
	C933.357544,541.611816 925.813354,547.170349 915.847168,549.830444 
	C912.170959,550.811707 908.190491,552.344177 904.642090,551.779968 
	C895.764404,550.368408 886.423340,548.086731 880.323792,541.371826 
	C873.056824,533.371521 869.719543,522.941711 871.166260,511.920654 
	C873.341431,495.349518 882.042847,483.967407 899.748169,481.768616 
	C905.933899,481.000427 912.923889,482.264832 918.823669,484.504974 
	C934.082336,490.298737 937.134155,503.804993 938.055908,518.852539 
	C938.097290,519.502991 938.180603,519.930969 938.180542,519.930908 
	C937.953735,520.249634 937.726990,520.568359 936.762878,520.953247 
	C921.419556,521.019348 906.813538,521.019348 891.418030,521.019348 
	C892.381165,523.390747 893.149292,525.282166 893.917480,527.173523 
	C893.917480,527.173523 893.917480,527.008911 893.910583,527.322388 
	C894.259644,528.125854 894.615540,528.615845 894.971436,529.105835 
	C894.971436,529.105835 894.985657,529.025391 895.030396,529.286621 
	C895.370911,529.758423 895.666565,529.968933 895.962280,530.179443 
	C895.918945,530.540527 896.056702,530.808411 896.725525,531.249451 
	C897.384705,531.654419 897.693909,531.793152 898.003113,531.931824 
M915.046753,501.698761 
	C908.337463,494.285736 898.688782,495.041260 893.294922,503.904877 
	C892.877747,505.200165 892.460632,506.495422 892.005432,507.908875 
	C900.661316,507.908875 908.777893,507.908875 917.703613,507.908875 
	C916.693115,505.762085 915.890137,504.056274 915.046753,501.698761 
z"/>
<path fill="#FCFDFC" opacity="1.000000" stroke="none" 
	d="
M727.017029,548.988892 
	C721.145142,549.308533 715.274414,549.653381 709.400085,549.917358 
	C708.632080,549.951843 707.318665,549.780945 707.148315,549.351746 
	C705.259644,544.592896 702.484741,547.216125 699.758850,548.249390 
	C696.150330,549.617126 692.459717,550.768311 688.006104,552.011536 
	C683.263672,550.596375 679.349792,549.089050 675.367188,547.792786 
	C670.934692,546.350159 667.817810,543.529175 666.905701,539.004517 
	C665.675232,532.901001 664.344360,526.716980 664.130615,520.530457 
	C663.702576,508.138031 664.003540,495.720367 664.003540,483.054199 
	C671.039551,483.054199 677.505249,483.054199 683.971008,483.054199 
	C683.971008,483.054199 684.010925,483.040253 684.185730,483.458435 
	C684.374023,495.352936 684.179199,506.835327 684.514709,518.302185 
	C684.631226,522.282776 686.061646,526.224792 686.892029,530.184448 
	C686.892029,530.184448 686.918640,530.071594 686.958008,530.337830 
	C687.302856,530.814697 687.608459,531.025330 687.914001,531.235962 
	C687.914001,531.235962 687.915039,531.100830 688.023682,531.398193 
	C688.732056,531.980347 689.331909,532.265137 689.931702,532.549988 
	C690.443237,532.717163 690.954773,532.884338 692.165710,533.088135 
	C695.945312,532.433228 699.025574,531.741699 702.105774,531.050171 
	C702.105774,531.050171 702.034790,531.025574 702.296021,530.981201 
	C702.758850,530.638550 702.960510,530.340332 703.162170,530.042114 
	C703.162170,530.042114 703.059387,530.046875 703.383606,529.908936 
	C704.425842,526.843689 705.143921,523.916382 705.948120,520.528076 
	C706.081970,507.723236 706.129639,495.379333 706.177368,483.035431 
	C712.764587,483.036987 719.351746,483.038574 726.460083,483.497253 
	C726.993103,505.632538 727.005066,527.310730 727.017029,548.988892 
z"/>
<path fill="#FEFEFE" opacity="1.000000" stroke="none" 
	d="
M214.063644,601.398987 
	C204.376877,584.474670 194.690125,567.550354 184.797028,550.265564 
	C193.210449,544.923462 201.566711,539.617676 210.397766,534.010437 
	C223.277863,556.237976 236.099167,578.364014 248.510086,600.909424 
	C236.754349,601.352112 225.408997,601.375549 214.063644,601.398987 
z"/>
<path fill="#F8FAF9" opacity="1.000000" stroke="none" 
	d="
M789.033813,548.977539 
	C782.197327,549.137451 775.360901,549.297363 768.261108,548.757935 
	C767.934509,517.729492 767.871277,487.400299 767.808044,457.071136 
	C768.558838,456.460785 769.303955,455.330658 770.061401,455.322266 
	C776.186035,455.254456 782.312988,455.397369 788.726440,456.223511 
	C789.020325,487.639893 789.027100,518.308716 789.033813,548.977539 
z"/>
<path fill="#FCFDFC" opacity="1.000000" stroke="none" 
	d="
M964.972839,548.993103 
	C963.417664,549.250244 961.862488,549.507385 959.835815,549.852905 
	C954.241333,549.621765 949.118469,549.302307 943.995544,548.982910 
	C943.995544,548.982910 943.994324,548.996826 944.005493,548.529419 
	C944.036011,526.379883 944.055298,504.697815 944.074707,483.015747 
	C950.368896,483.015747 956.663086,483.015747 963.181091,483.015747 
	C963.444763,484.852661 963.671204,486.430603 964.072449,489.226196 
	C971.651184,483.915894 979.020081,479.143890 988.240356,481.432526 
	C988.240356,487.514160 988.240356,493.576782 988.240356,500.049011 
	C980.880188,499.872711 973.582581,499.165131 968.115356,505.933472 
	C967.901733,506.467743 967.741516,506.931946 967.741516,506.931946 
	C967.741516,506.931946 967.908813,506.941223 967.615234,507.023315 
	C967.119080,507.730713 966.916504,508.355988 966.713989,508.981262 
	C966.713989,508.981293 966.885071,509.027985 966.568115,509.151733 
	C965.816162,512.546814 965.058167,515.812988 965.006348,519.090454 
	C964.848694,529.055664 964.963928,539.025208 964.972839,548.993103 
z"/>
<path fill="#FAFBFB" opacity="1.000000" stroke="none" 
	d="
M736.791260,484.082336 
	C740.378479,483.727509 743.958984,483.249603 747.554871,483.055328 
	C750.644348,482.888428 753.751282,483.045502 757.343018,483.517395 
	C757.812317,505.727600 757.789001,527.479675 757.765686,549.231812 
	C751.009338,549.308472 744.252930,549.385132 737.240173,548.752808 
	C736.919617,526.723267 736.855408,505.402802 736.791260,484.082336 
z"/>
<path fill="#2F5E42" opacity="1.000000" stroke="none" 
	d="
M683.914978,482.700287 
	C677.505249,483.054199 671.039551,483.054199 664.003540,483.054199 
	C664.003540,495.720367 663.702576,508.138031 664.130615,520.530457 
	C664.344360,526.716980 665.675232,532.901001 666.905701,539.004517 
	C667.817810,543.529175 670.934692,546.350159 675.367188,547.792786 
	C679.349792,549.089050 683.263672,550.596375 687.603027,552.081665 
	C687.844421,555.500244 686.627136,556.981323 683.293579,554.879944 
	C682.744385,554.533752 682.111816,554.210754 681.482300,554.118103 
	C675.896118,553.296204 670.301453,552.532043 664.710754,551.740356 
	C664.062317,551.648499 663.247925,551.172791 662.805786,551.414734 
	C656.635437,554.791626 657.619385,550.188965 657.683960,547.224548 
	C654.058655,546.335327 650.693787,545.509949 646.982605,544.449829 
	C648.454712,542.593384 650.273132,540.971680 652.666870,539.003662 
	C653.479736,538.067871 653.717407,537.478333 653.955017,536.888855 
	C653.955017,536.888855 653.975647,536.961243 654.201050,536.840027 
	C654.556885,536.357300 654.687317,535.995850 654.817749,535.634338 
	C654.817749,535.634338 654.838135,535.895996 655.044678,535.755432 
	C655.367126,534.963013 655.482910,534.311218 655.598694,533.659363 
	C655.598694,533.659363 655.689575,533.781616 655.989380,533.679993 
	C657.998962,529.175293 661.045410,524.875977 657.339355,520.052368 
	C657.260559,519.873901 657.181702,519.695435 657.366455,519.015747 
	C657.338318,517.696655 657.046509,516.878845 656.754700,516.061035 
	C656.754700,516.061035 656.905151,516.056824 656.908081,515.750549 
	C656.480774,514.665710 656.050476,513.887207 655.620117,513.108704 
	C655.620117,513.108704 655.812073,513.063354 655.835571,512.778687 
	C655.511780,511.843170 655.164490,511.192413 654.817261,510.541626 
	C653.128906,509.065247 651.440552,507.588837 650.149719,505.648376 
	C652.668823,504.568298 654.790466,503.952240 657.192566,503.254761 
	C656.053711,500.625366 655.167480,498.579285 654.289490,496.552307 
	C649.605103,496.438141 647.881714,498.328491 649.720825,502.882324 
	C649.992737,503.555511 649.638184,504.481689 649.573486,505.290802 
	C646.477722,503.912018 643.381958,502.533203 639.498169,500.803467 
	C647.881653,496.955170 652.562073,491.190674 653.447449,482.613525 
	C654.289124,474.459564 651.309692,467.750671 645.992004,461.464355 
	C645.697998,459.681091 645.434143,458.260406 645.119995,456.568817 
	C648.729370,455.854767 649.084656,458.076080 650.126709,460.477936 
	C651.599243,463.872070 654.038452,466.844696 656.043640,470.010651 
	C657.052307,471.603180 658.395874,473.113434 658.906616,474.860138 
	C659.615051,477.282867 659.682495,479.893066 659.923828,481.678772 
	C666.807922,480.753113 672.958252,479.681000 679.152466,479.270599 
	C680.646790,479.171600 682.286194,481.262512 683.914978,482.700287 
M660.608337,510.026947 
	C659.932800,508.411316 659.257263,506.795685 658.581665,505.180054 
	C657.960327,505.566589 657.339050,505.953125 656.717712,506.339661 
	C657.881287,507.725983 659.044800,509.112335 660.608337,510.026947 
M662.563721,540.819275 
	C663.304749,540.769653 664.045715,540.720032 664.786743,540.670410 
	C664.441406,539.980835 664.096130,539.291260 663.750793,538.601685 
	C663.253540,539.146362 662.756348,539.691040 662.563721,540.819275 
M661.913879,535.689087 
	C662.425476,535.506531 662.937134,535.323975 663.448730,535.141479 
	C663.181946,534.832520 662.915222,534.523560 662.648438,534.214600 
	C662.269775,534.567261 661.891113,534.919983 661.913879,535.689087 
z"/>
<path fill="#F8FAF9" opacity="1.000000" stroke="none" 
	d="
M737.446533,459.557526 
	C743.946655,454.353485 750.576904,453.701508 756.264648,458.194427 
	C759.459106,460.717865 759.863953,464.842865 758.905945,468.679932 
	C757.600586,473.908051 753.565369,476.861694 748.678528,477.828491 
	C743.605103,478.832214 739.590576,476.092468 736.917480,471.819214 
	C734.445129,467.866852 734.081726,463.764404 737.446533,459.557526 
z"/>
<path fill="#0C4220" opacity="1.000000" stroke="none" 
	d="
M244.151367,549.721191 
	C250.088455,549.436401 256.235352,549.359863 262.374481,549.543213 
	C265.064087,549.623596 266.585754,549.120178 267.253387,546.083191 
	C268.134888,542.073059 270.031616,538.290161 270.967041,534.286865 
	C271.834290,530.575500 273.856476,529.839111 277.337097,529.968994 
	C284.939087,530.252625 292.572052,530.386475 300.163025,530.002319 
	C304.009918,529.807617 306.015778,530.776489 306.752716,534.600037 
	C307.187317,536.854858 308.119049,539.013794 308.819336,541.588989 
	C308.121002,541.153687 307.015076,540.438965 306.808075,539.521484 
	C305.550323,533.946472 302.112976,532.370667 296.651825,532.753418 
	C290.213654,533.204590 283.716583,532.993958 277.252350,532.811218 
	C274.417145,532.731140 273.152374,533.683289 272.465515,536.466187 
	C271.522858,540.285767 270.308136,544.102417 268.636292,547.649963 
	C267.833588,549.353210 265.794800,551.490112 264.177948,551.612732 
	C258.077423,552.075317 251.919525,551.831360 245.785858,551.711792 
	C245.299210,551.702271 244.833481,550.619202 244.151367,549.721191 
z"/>
<path fill="#1C4F30" opacity="1.000000" stroke="none" 
	d="
M312.260529,550.867065 
	C315.294037,550.223511 318.466278,549.617981 321.660858,549.457825 
	C325.740387,549.253235 329.837982,549.408203 334.491058,549.408203 
	C332.085297,542.714355 329.876923,536.569702 327.535645,530.099548 
	C328.312073,530.493103 329.543457,531.029724 330.072449,531.964111 
	C331.927277,535.240417 333.540192,538.653748 335.640808,542.346069 
	C336.591003,543.445251 337.145355,544.213379 337.798370,545.437378 
	C338.729523,547.069580 339.532745,549.236877 340.399170,549.262390 
	C346.277893,549.435791 352.169952,549.157227 358.089111,549.006836 
	C358.120483,548.989014 358.189606,549.009827 358.189636,549.009827 
	C356.812714,549.990601 355.410919,551.841492 354.063202,551.802979 
	C347.886139,551.626282 341.723602,550.508240 335.557129,550.518250 
	C329.054291,550.528870 322.556427,551.490906 316.047699,551.898865 
	C314.856171,551.973450 313.623108,551.385254 312.260529,550.867065 
z"/>
<path fill="#2F5E42" opacity="1.000000" stroke="none" 
	d="
M643.509888,547.122864 
	C644.251587,546.344116 644.993286,545.565308 645.990662,544.659912 
	C649.977539,551.043396 649.293213,552.417969 641.527405,552.945557 
	C630.570801,553.689941 619.603882,554.422852 608.630310,554.671265 
	C606.158936,554.727112 603.641907,552.762939 601.540527,551.346802 
	C608.483337,550.958923 615.033264,551.030396 621.578369,550.886780 
	C623.021790,550.855103 624.448547,550.061462 625.882935,549.618774 
	C630.684448,549.075745 635.485962,548.532715 640.701416,548.426147 
	C641.768311,549.408386 642.421265,549.954041 643.074280,550.499695 
	C643.219482,549.374084 643.364685,548.248474 643.509888,547.122864 
z"/>
<path fill="#0C4220" opacity="1.000000" stroke="none" 
	d="
M360.007782,457.993347 
	C360.002014,486.383545 360.016174,514.773804 359.944580,543.163818 
	C359.939880,545.018555 359.277435,546.871582 358.555267,548.867615 
	C358.189606,549.009827 358.120483,548.989014 358.151825,548.540527 
	C358.187378,527.347534 358.163940,506.602997 358.208374,485.858582 
	C358.228241,476.576996 358.384338,467.295715 358.733643,458.024109 
	C359.328369,458.020386 359.668060,458.006866 360.007782,457.993347 
z"/>
<path fill="#1C4F30" opacity="1.000000" stroke="none" 
	d="
M367.629333,483.131866 
	C367.963226,513.018677 367.911804,543.031250 367.814941,573.509155 
	C367.178955,572.615967 366.078094,571.259338 366.073212,569.898743 
	C365.974091,542.330750 365.983582,514.762268 366.054718,487.194153 
	C366.058105,485.881012 366.830017,484.569794 367.629333,483.131866 
z"/>
<path fill="#0C4220" opacity="1.000000" stroke="none" 
	d="
M337.699677,544.981567 
	C337.145355,544.213379 336.591003,543.445251 336.029510,542.353271 
	C336.024414,532.989441 336.026489,523.949341 336.032257,513.973206 
	C336.033447,504.701477 336.030975,496.365845 336.028503,488.030212 
	C336.029083,487.572540 336.029663,487.114899 336.032196,485.852325 
	C336.032043,480.708069 336.029938,476.368744 336.027832,472.029388 
	C336.028503,471.571930 336.029175,471.114471 336.031860,469.863037 
	C336.029572,466.052948 336.025269,463.036835 336.020966,460.020691 
	C336.019806,459.572113 336.018646,459.123566 336.292267,458.336548 
	C336.935608,458.004944 337.304199,458.011841 337.757080,458.479309 
	C337.794159,487.620453 337.746918,516.301025 337.699677,544.981567 
z"/>
<path fill="#1C4F30" opacity="1.000000" stroke="none" 
	d="
M506.531250,548.863281 
	C506.108185,535.173889 506.223358,521.364685 505.922150,507.564514 
	C505.829681,503.327301 504.597565,499.114929 503.826843,494.495911 
	C505.165802,498.137665 507.614807,502.134247 507.772308,506.219177 
	C508.291565,519.686401 507.997742,533.185669 507.944214,546.672363 
	C507.941467,547.365173 507.269592,548.055420 506.531250,548.863281 
z"/>
<path fill="#002D0A" opacity="1.000000" stroke="none" 
	d="
M789.331421,548.686707 
	C789.027100,518.308716 789.020325,487.639893 789.043213,456.505646 
	C789.372864,457.281036 789.932556,458.521423 789.934631,459.762726 
	C789.981995,488.658081 789.971191,517.553589 789.953003,546.449036 
	C789.952576,547.098022 789.741699,547.746948 789.331421,548.686707 
z"/>
<path fill="#002D0A" opacity="1.000000" stroke="none" 
	d="
M767.536987,457.378967 
	C767.871277,487.400299 767.934509,517.729492 767.992493,548.527222 
	C767.656128,547.775818 767.037964,546.556335 767.036011,545.335754 
	C766.989624,516.608154 767.008423,487.880524 767.027832,459.152893 
	C767.028137,458.664124 767.183167,458.175507 767.536987,457.378967 
z"/>
<path fill="#002D0A" opacity="1.000000" stroke="none" 
	d="
M865.425110,547.608765 
	C865.118347,517.606689 865.065247,487.284698 865.033752,456.496704 
	C865.364014,457.263367 865.939819,458.495544 865.942017,459.728760 
	C865.993347,488.264191 865.984375,516.799744 865.970276,545.335266 
	C865.969971,545.986511 865.780151,546.637695 865.425110,547.608765 
z"/>
<path fill="#002D0A" opacity="1.000000" stroke="none" 
	d="
M584.884033,458.012604 
	C584.997192,460.983704 585.209595,463.954834 585.208130,466.925873 
	C585.194885,493.968414 585.144287,521.010925 585.038574,548.517029 
	C584.657654,547.417419 584.070679,545.854736 584.068298,544.291077 
	C584.024841,515.855896 584.051819,487.420685 584.276245,458.503815 
	C584.488770,458.022156 584.884033,458.012604 584.884033,458.012604 
z"/>
<path fill="#0C4220" opacity="1.000000" stroke="none" 
	d="
M686.938965,529.744385 
	C686.061646,526.224792 684.631226,522.282776 684.514709,518.302185 
	C684.179199,506.835327 684.374023,495.352936 684.182678,483.437531 
	C684.671265,484.451965 685.886353,485.894867 685.914673,487.360748 
	C686.093201,496.594971 685.903076,505.835968 686.053650,515.071167 
	C686.131104,519.819397 686.660645,524.560181 686.938965,529.744385 
z"/>
<path fill="#0C4220" opacity="1.000000" stroke="none" 
	d="
M38.239426,601.618774 
	C51.699615,601.237122 65.356865,601.260864 79.478653,601.306274 
	C79.066269,601.879517 78.193161,602.904236 77.311859,602.911377 
	C65.077972,603.010071 52.842876,602.985168 40.608421,602.922363 
	C39.882927,602.918701 39.160397,602.336914 38.239426,601.618774 
z"/>
<path fill="#0C4220" opacity="1.000000" stroke="none" 
	d="
M639.730225,458.076538 
	C622.055420,453.882721 603.919617,456.854218 585.498291,456.072998 
	C585.818298,455.469177 586.616150,454.169922 587.375854,454.191895 
	C603.293213,454.652100 619.208252,455.215881 635.116882,455.916046 
	C636.638733,455.983032 638.115051,457.083893 639.730225,458.076538 
z"/>
<path fill="#1C4F30" opacity="1.000000" stroke="none" 
	d="
M337.672791,458.018738 
	C337.304199,458.011841 336.935608,458.004944 336.290527,458.000122 
	C335.317810,454.051331 338.417603,453.373657 340.915466,453.172058 
	C345.702698,452.785645 350.583923,452.706696 355.339935,453.252167 
	C357.023804,453.445282 358.456360,455.829987 360.005707,457.603760 
	C359.668060,458.006866 359.328369,458.020386 358.716553,457.515198 
	C357.985046,456.427979 357.535431,455.374176 357.064789,455.364716 
	C351.135590,455.245239 345.201050,455.202698 339.275726,455.389099 
	C338.714386,455.406799 338.205841,457.102234 337.672791,458.018738 
z"/>
<path fill="#0C4220" opacity="1.000000" stroke="none" 
	d="
M463.653503,548.874817 
	C463.345184,537.352661 463.388855,525.659851 463.575134,513.523376 
	C464.146606,513.871948 464.942688,514.661255 464.948792,515.456665 
	C465.028503,525.842590 465.015411,536.229614 464.950104,546.615845 
	C464.945679,547.313843 464.334442,548.008118 463.653503,548.874817 
z"/>
<path fill="#0C4220" opacity="1.000000" stroke="none" 
	d="
M214.215042,601.746399 
	C225.408997,601.375549 236.754349,601.352112 248.567627,601.269592 
	C248.167068,601.800537 247.303299,602.895569 246.429352,602.903687 
	C236.134552,603.000183 225.838165,602.942932 215.542526,602.876160 
	C215.148804,602.873657 214.758392,602.366089 214.215042,601.746399 
z"/>
<path fill="#1C4F30" opacity="1.000000" stroke="none" 
	d="
M844.919189,455.145508 
	C845.334534,466.191101 845.334534,477.286499 845.334534,489.283051 
	C843.462646,487.834045 842.275391,486.915009 840.858643,485.749329 
	C841.420349,483.898499 842.834106,482.317413 842.894836,480.685974 
	C843.151672,473.783691 842.914917,466.864319 843.075439,459.956207 
	C843.112610,458.359039 844.004944,456.781769 844.919189,455.145508 
z"/>
<path fill="#1C4F30" opacity="1.000000" stroke="none" 
	d="
M412.912567,481.459564 
	C401.406433,480.804321 397.273102,481.940643 388.217712,488.729828 
	C388.217712,486.991791 388.217712,485.394684 388.074768,483.414978 
	C392.463593,482.026123 397.005707,481.063965 401.523926,480.000183 
	C405.439270,479.078369 409.392334,477.357880 412.912567,481.459564 
z"/>
<path fill="#002D0A" opacity="1.000000" stroke="none" 
	d="
M727.320129,548.701050 
	C727.005066,527.310730 726.993103,505.632538 726.919556,483.491333 
	C727.234741,484.057739 727.937012,485.086151 727.940063,486.116638 
	C727.999939,506.401093 727.981079,526.685852 727.959351,546.970520 
	C727.958801,547.451538 727.740173,547.932373 727.320129,548.701050 
z"/>
<path fill="#002D0A" opacity="1.000000" stroke="none" 
	d="
M758.107666,548.943481 
	C757.789001,527.479675 757.812317,505.727600 757.796387,483.511780 
	C758.160583,484.216339 758.911255,485.383362 758.915527,486.553070 
	C758.987488,506.454987 758.972839,526.357239 758.944763,546.259338 
	C758.943665,547.058167 758.621948,547.856628 758.107666,548.943481 
z"/>
<path fill="#002D0A" opacity="1.000000" stroke="none" 
	d="
M943.763062,483.295898 
	C944.055298,504.697815 944.036011,526.379883 944.011108,548.530518 
	C943.674988,547.945862 943.059021,546.893250 943.056213,545.839111 
	C943.002808,525.726135 943.017639,505.612946 943.043335,485.499817 
	C943.044128,484.858368 943.309509,484.217255 943.763062,483.295898 
z"/>
<path fill="#002D0A" opacity="1.000000" stroke="none" 
	d="
M736.542480,484.404968 
	C736.855408,505.402802 736.919617,526.723267 736.974121,548.510620 
	C736.648254,548.249207 736.054810,547.520325 736.056274,546.792664 
	C736.098755,526.104309 736.201172,505.415955 736.542480,484.404968 
z"/>
<path fill="#0C4220" opacity="1.000000" stroke="none" 
	d="
M389.493286,544.638000 
	C390.132904,545.147339 390.772522,545.656616 391.587341,546.416748 
	C391.174469,548.255249 390.136017,549.827087 390.079224,551.433594 
	C389.874359,557.227295 390.061768,563.033813 389.960297,568.832947 
	C389.932770,570.406616 389.409851,571.971680 388.731171,573.766113 
	C388.311768,564.653442 388.275513,555.315247 388.585815,545.457886 
	C389.119354,544.838501 389.306305,544.738281 389.493286,544.638000 
z"/>
<path fill="#1C4F30" opacity="1.000000" stroke="none" 
	d="
M442.449127,459.127197 
	C442.873688,467.697693 442.918121,476.375397 442.901245,485.516968 
	C442.231232,485.155701 441.107422,484.338715 441.094208,483.504150 
	C440.974579,475.942535 441.029053,468.377625 441.109650,460.814514 
	C441.115326,460.284424 441.734924,459.760925 442.449127,459.127197 
z"/>
<path fill="#002D0A" opacity="1.000000" stroke="none" 
	d="
M893.935608,526.724731 
	C893.149292,525.282166 892.381165,523.390747 891.418030,521.019348 
	C906.813538,521.019348 921.419556,521.019348 936.488892,521.068726 
	C935.219971,521.411011 933.489441,521.945679 931.755371,521.957458 
	C920.511414,522.034119 909.265198,522.100769 898.023254,521.933411 
	C894.674683,521.883484 893.501953,523.130615 893.935608,526.724731 
z"/>
<path fill="#002D0A" opacity="1.000000" stroke="none" 
	d="
M575.427124,547.640991 
	C575.097046,534.258057 575.059631,520.574280 574.987122,506.890656 
	C574.977539,505.082733 574.789307,503.275757 574.787537,500.966736 
	C575.255615,501.536499 575.937866,502.608337 575.936340,503.679199 
	C575.915894,518.232910 575.800659,532.786499 575.427124,547.640991 
z"/>
<path fill="#002D0A" opacity="1.000000" stroke="none" 
	d="
M965.287903,548.716064 
	C964.963928,539.025208 964.848694,529.055664 965.006348,519.090454 
	C965.058167,515.812988 965.816162,512.546814 966.587646,509.065216 
	C966.483765,522.049683 966.043396,535.244385 965.287903,548.716064 
z"/>
<path fill="#002D0A" opacity="1.000000" stroke="none" 
	d="
M625.477905,549.566284 
	C624.448547,550.061462 623.021790,550.855103 621.578369,550.886780 
	C615.033264,551.030396 608.483337,550.958923 601.467041,550.991943 
	C599.932129,551.005859 598.865417,550.992737 596.941895,550.976074 
	C592.723938,550.979248 589.362793,550.985901 586.001587,550.992554 
	C586.001587,550.992554 586.000000,551.000000 585.975952,550.717529 
	C585.952271,550.246460 585.952637,550.057861 585.953003,549.869202 
	C598.992920,549.750732 612.032898,549.632202 625.477905,549.566284 
z"/>
<path fill="#002D0A" opacity="1.000000" stroke="none" 
	d="
M484.595276,508.335999 
	C484.924072,521.380493 484.963104,534.720337 484.999634,548.528442 
	C484.672943,548.275635 484.064850,547.553650 484.066833,546.833435 
	C484.102173,534.099243 484.211884,521.365295 484.595276,508.335999 
z"/>
<path fill="#0C4220" opacity="1.000000" stroke="none" 
	d="
M521.061340,547.273193 
	C528.018127,550.641968 535.253479,552.457458 543.496704,549.801025 
	C541.316345,550.784546 538.493347,553.061890 536.166809,552.634888 
	C531.006836,551.687744 526.095947,549.383606 521.061340,547.273193 
z"/>
<path fill="#0C4220" opacity="1.000000" stroke="none" 
	d="
M816.161499,550.172241 
	C822.838928,551.481201 829.562744,551.868408 836.547302,548.934448 
	C833.861633,550.184387 830.878479,552.204773 827.683167,552.629639 
	C823.873352,553.136169 819.455872,554.420959 816.161499,550.172241 
z"/>
<path fill="#1C4F30" opacity="1.000000" stroke="none" 
	d="
M387.892090,482.656006 
	C381.630493,483.044220 375.284943,483.036957 368.471313,483.019684 
	C368.422852,482.524048 368.852448,481.607910 369.260681,481.617310 
	C375.444855,481.760315 381.626160,482.024658 387.892090,482.656006 
z"/>
<path fill="#002D0A" opacity="1.000000" stroke="none" 
	d="
M705.830688,483.276947 
	C706.129639,495.379333 706.081970,507.723236 705.751099,520.526428 
	C705.467834,520.985718 705.074341,520.962830 705.074341,520.962830 
	C705.210938,508.481384 705.347534,495.999908 705.830688,483.276947 
z"/>
<path fill="#002D0A" opacity="1.000000" stroke="none" 
	d="
M944.305115,549.157410 
	C949.118469,549.302307 954.241333,549.621765 959.407104,550.264160 
	C954.504883,550.168762 949.559814,549.750305 944.305115,549.157410 
z"/>
<path fill="#0C4220" opacity="1.000000" stroke="none" 
	d="
M315.930603,497.753357 
	C313.548157,492.065948 311.182892,485.962341 308.727844,479.478333 
	C313.671997,484.136749 314.320251,490.933167 315.930603,497.753357 
z"/>
<path fill="#0C4220" opacity="1.000000" stroke="none" 
	d="
M321.802673,512.793518 
	C319.781555,508.411346 317.852905,503.627960 315.877686,498.465332 
	C317.199402,500.127167 318.923950,502.021332 319.842346,504.248016 
	C320.898773,506.809296 321.242096,509.664673 321.802673,512.793518 
z"/>
<path fill="#0C4220" opacity="1.000000" stroke="none" 
	d="
M249.920364,530.177368 
	C248.435699,535.338440 246.584991,540.572021 244.422272,545.996216 
	C245.924957,540.874512 247.739639,535.562134 249.920364,530.177368 
z"/>
<path fill="#1C4F30" opacity="1.000000" stroke="none" 
	d="
M335.753815,488.338593 
	C336.030975,496.365845 336.033447,504.701477 336.033081,513.502563 
	C335.702972,508.960144 335.241302,503.956207 335.095184,498.943115 
	C334.995300,495.517731 335.335602,492.079468 335.753815,488.338593 
z"/>
<path fill="#2F5E42" opacity="1.000000" stroke="none" 
	d="
M586.221191,551.269165 
	C589.362793,550.985901 592.723938,550.979248 596.542419,551.000916 
	C593.752075,554.789490 591.402588,554.904419 586.221191,551.269165 
z"/>
<path fill="#002D0A" opacity="1.000000" stroke="none" 
	d="
M553.589600,504.317261 
	C553.917236,505.195160 553.975708,506.334381 554.086792,508.499084 
	C546.933960,508.499084 539.943237,508.499084 532.484253,508.561707 
	C533.451050,508.090485 534.866882,507.168304 536.324951,507.095886 
	C540.616760,506.882782 544.939758,507.202576 549.219238,506.887939 
	C550.635193,506.783844 551.955994,505.385284 553.589600,504.317261 
z"/>
<path fill="#1C4F30" opacity="1.000000" stroke="none" 
	d="
M442.470032,526.119934 
	C442.888702,529.702148 442.929138,533.386169 442.908997,537.525940 
	C439.369354,534.269287 440.742340,530.244751 442.470032,526.119934 
z"/>
<path fill="#1C4F30" opacity="1.000000" stroke="none" 
	d="
M442.469482,491.119629 
	C442.887451,494.370789 442.929077,497.723145 442.909912,501.528625 
	C439.444244,498.616272 440.787384,494.917206 442.469482,491.119629 
z"/>
<path fill="#0C4220" opacity="1.000000" stroke="none" 
	d="
M254.092377,518.224121 
	C253.152847,521.975891 251.930862,525.865845 250.424713,529.987366 
	C251.363663,526.266724 252.586792,522.314575 254.092377,518.224121 
z"/>
<path fill="#0C4220" opacity="1.000000" stroke="none" 
	d="
M306.921783,473.761993 
	C305.465393,470.585541 304.029907,466.988159 302.466431,463.064362 
	C303.118591,462.981812 304.466278,463.064606 304.588440,463.495117 
	C305.508759,466.738617 306.188080,470.050507 306.921783,473.761993 
z"/>
<path fill="#0C4220" opacity="1.000000" stroke="none" 
	d="
M544.207397,549.906189 
	C547.082153,548.663940 550.361755,547.446167 553.722900,546.594849 
	C550.740356,547.951111 547.676331,548.940918 544.207397,549.906189 
z"/>
<path fill="#0C4220" opacity="1.000000" stroke="none" 
	d="
M324.792419,520.817749 
	C323.673065,518.920837 322.660736,516.604431 321.518127,513.966919 
	C326.125702,514.041382 324.275085,517.863342 324.792419,520.817749 
z"/>
<path fill="#1C4F30" opacity="1.000000" stroke="none" 
	d="
M335.755310,472.335236 
	C336.029938,476.368744 336.032043,480.708069 336.031036,485.509064 
	C335.846222,481.527496 335.664551,477.084290 335.755310,472.335236 
z"/>
<path fill="#0C4220" opacity="1.000000" stroke="none" 
	d="
M705.008789,521.348022 
	C705.074341,520.962830 705.467834,520.985718 705.664917,520.987427 
	C705.143921,523.916382 704.425842,526.843689 703.394226,529.959229 
	C703.701477,527.342773 704.322327,524.538025 705.008789,521.348022 
z"/>
<path fill="#0C4220" opacity="1.000000" stroke="none" 
	d="
M302.774414,461.793945 
	C301.726654,460.387024 300.795929,458.575073 299.749207,456.423218 
	C303.281708,456.278259 302.935516,458.926331 302.774414,461.793945 
z"/>
<path fill="#0C4220" opacity="1.000000" stroke="none" 
	d="
M701.686646,531.034973 
	C699.025574,531.741699 695.945312,532.433228 692.443909,533.027100 
	C695.104309,532.292908 698.185852,531.656372 701.686646,531.034973 
z"/>
<path fill="#1C4F30" opacity="1.000000" stroke="none" 
	d="
M442.493408,514.100342 
	C442.885681,515.724426 442.926910,517.430298 442.907074,519.558838 
	C439.735138,518.397339 440.648346,516.324951 442.493408,514.100342 
z"/>
<path fill="#1C4F30" opacity="1.000000" stroke="none" 
	d="
M836.777771,482.947144 
	C834.738770,482.722443 832.629517,482.138336 830.238037,481.326843 
	C832.206299,481.595581 834.456970,482.091644 836.777771,482.947144 
z"/>
<path fill="#1C4F30" opacity="1.000000" stroke="none" 
	d="
M335.756500,460.317535 
	C336.025269,463.036835 336.029572,466.052948 336.030762,469.519958 
	C335.849152,466.852020 335.670593,463.733185 335.756500,460.317535 
z"/>
<path fill="#0C4220" opacity="1.000000" stroke="none" 
	d="
M308.870422,478.864624 
	C308.168793,477.766083 307.530518,476.270599 306.839844,474.419434 
	C307.502869,475.531708 308.218292,476.999695 308.870422,478.864624 
z"/>
<path fill="#0C4220" opacity="1.000000" stroke="none" 
	d="
M812.091125,548.243774 
	C813.290100,548.376465 814.516113,548.886169 815.960327,549.651123 
	C814.825012,549.477783 813.471619,549.049316 812.091125,548.243774 
z"/>
<path fill="#0C4220" opacity="1.000000" stroke="none" 
	d="
M518.109619,545.169006 
	C518.972351,545.360596 519.841248,545.916443 520.907593,546.713989 
	C520.108582,546.481506 519.112244,546.007446 518.109619,545.169006 
z"/>
<path fill="#1C4F30" opacity="1.000000" stroke="none" 
	d="
M327.505249,528.938843 
	C326.862671,528.360962 326.445862,527.479858 326.312927,526.299438 
	C326.596832,526.000122 327.066833,525.992981 327.066833,525.992981 
	C327.288208,526.873840 327.509613,527.754761 327.505249,528.938843 
z"/>
<path fill="#1C4F30" opacity="1.000000" stroke="none" 
	d="
M502.903320,491.848022 
	C502.257538,491.351868 501.659882,490.501831 501.104736,489.335480 
	C501.748627,489.844147 502.350037,490.669159 502.903320,491.848022 
z"/>
<path fill="#0C4220" opacity="1.000000" stroke="none" 
	d="
M243.939026,546.092651 
	C244.149261,546.525818 244.104477,546.942871 243.969589,547.662292 
	C243.814331,547.335266 243.749176,546.705872 243.939026,546.092651 
z"/>
<path fill="#0C4220" opacity="1.000000" stroke="none" 
	d="
M325.809174,523.895874 
	C325.313690,523.512695 324.913574,522.743591 324.444702,521.641113 
	C324.885498,522.041809 325.395020,522.775879 325.809174,523.895874 
z"/>
<path fill="#0C4220" opacity="1.000000" stroke="none" 
	d="
M810.215820,546.903320 
	C810.653931,546.863525 811.221313,547.136902 811.967590,547.671814 
	C811.546021,547.694397 810.945557,547.455383 810.215820,546.903320 
z"/>
<path fill="#0C4220" opacity="1.000000" stroke="none" 
	d="
M839.171997,547.912048 
	C839.362915,547.573181 839.874207,547.210632 840.702393,546.900146 
	C840.510254,547.264221 840.001282,547.576294 839.171997,547.912048 
z"/>
<path fill="#1C4F30" opacity="1.000000" stroke="none" 
	d="
M840.608643,485.170349 
	C840.118896,485.246307 839.586548,484.977234 838.901672,484.451569 
	C839.354797,484.405090 839.960449,484.615204 840.608643,485.170349 
z"/>
<path fill="#0C4220" opacity="1.000000" stroke="none" 
	d="
M514.087280,540.217651 
	C514.398865,540.373047 514.757324,540.854126 515.213501,541.628113 
	C514.918823,541.461853 514.526428,541.002625 514.087280,540.217651 
z"/>
<path fill="#0C4220" opacity="1.000000" stroke="none" 
	d="
M837.181946,548.916260 
	C837.356140,548.611145 837.856445,548.287292 838.662659,547.909058 
	C838.481750,548.202332 837.994873,548.549988 837.181946,548.916260 
z"/>
<path fill="#1C4F30" opacity="1.000000" stroke="none" 
	d="
M503.862122,493.880981 
	C503.535645,493.707520 503.221161,493.198364 502.836548,492.385895 
	C503.135651,492.570129 503.504883,493.057709 503.862122,493.880981 
z"/>
<path fill="#0C4220" opacity="1.000000" stroke="none" 
	d="
M512.107056,536.125732 
	C512.360840,536.330017 512.679077,536.853882 513.023193,537.699585 
	C512.756592,537.496094 512.464111,536.970642 512.107056,536.125732 
z"/>
<path fill="#0C4220" opacity="1.000000" stroke="none" 
	d="
M327.013489,525.663452 
	C327.066833,525.992981 326.596832,526.000122 326.361877,525.994751 
	C325.974884,525.608459 325.822845,525.227478 325.581207,524.550781 
	C325.981110,524.614563 326.470642,524.974182 327.013489,525.663452 
z"/>
<path fill="#0C4220" opacity="1.000000" stroke="none" 
	d="
M689.799561,532.211853 
	C689.331909,532.265137 688.732056,531.980347 687.957520,531.412109 
	C688.410950,531.377075 689.039185,531.625366 689.799561,532.211853 
z"/>
<path fill="#0C4220" opacity="1.000000" stroke="none" 
	d="
M643.790771,460.188934 
	C643.321411,460.255981 642.713135,459.987671 641.916931,459.443298 
	C642.369995,459.396027 643.010864,459.624786 643.790771,460.188934 
z"/>
<path fill="#1C4F30" opacity="1.000000" stroke="none" 
	d="
M838.754150,483.987396 
	C838.289917,484.108337 837.698975,483.912506 836.922485,483.465240 
	C837.367065,483.366089 837.997314,483.518372 838.754150,483.987396 
z"/>
<path fill="#0C4220" opacity="1.000000" stroke="none" 
	d="
M641.781250,459.002747 
	C641.297302,459.154480 640.677490,458.979065 639.863464,458.546600 
	C640.328003,458.418243 640.986694,458.546906 641.781250,459.002747 
z"/>
<path fill="#0C4220" opacity="1.000000" stroke="none" 
	d="
M807.337708,544.835815 
	C807.798523,544.816345 808.312561,545.137512 809.004333,545.706299 
	C808.585083,545.694702 807.987976,545.435486 807.337708,544.835815 
z"/>
<path fill="#002D0A" opacity="1.000000" stroke="none" 
	d="
M967.021606,508.826904 
	C966.916504,508.355988 967.119080,507.730713 967.608154,506.939850 
	C967.706238,507.407043 967.517761,508.039795 967.021606,508.826904 
z"/>
<path fill="#002D0A" opacity="1.000000" stroke="none" 
	d="
M894.916382,528.781128 
	C894.615540,528.615845 894.259644,528.125854 893.828613,527.329346 
	C894.122803,527.500671 894.492065,527.978516 894.916382,528.781128 
z"/>
<path fill="#1C4F30" opacity="1.000000" stroke="none" 
	d="
M309.447784,545.621826 
	C309.331360,545.838135 309.173859,546.038696 309.016357,546.239319 
	C309.017853,546.067566 309.019348,545.895813 309.198883,545.623596 
	C309.376923,545.523132 309.406677,545.606018 309.447784,545.621826 
z"/>
<path fill="#1C4F30" opacity="1.000000" stroke="none" 
	d="
M310.736755,548.126343 
	C310.894531,548.021606 311.047974,548.485901 311.074524,548.729004 
	C310.927032,548.725098 310.752991,548.478149 310.736755,548.126343 
z"/>
<path fill="#2F5E42" opacity="1.000000" stroke="none" 
	d="
M585.770264,549.719482 
	C585.952637,550.057861 585.952271,550.246460 585.980469,550.716553 
	C585.754883,550.673157 585.500732,550.348145 585.197388,549.709473 
	C585.148193,549.395752 585.587463,549.569824 585.770264,549.719482 
z"/>
<path fill="#002D0A" opacity="1.000000" stroke="none" 
	d="
M897.822876,531.767639 
	C897.693909,531.793152 897.384705,531.654419 896.962769,531.274292 
	C897.087341,531.260437 897.351562,531.450623 897.822876,531.767639 
z"/>
<path fill="#002D0A" opacity="1.000000" stroke="none" 
	d="
M938.275879,519.835449 
	C938.180603,519.930969 938.097290,519.502991 938.152588,519.292114 
	C938.471863,519.290283 938.526306,519.509827 938.275879,519.835449 
z"/>
<path fill="#0C4220" opacity="1.000000" stroke="none" 
	d="
M584.940430,457.768433 
	C584.884033,458.012604 584.488770,458.022156 584.292480,458.039001 
	C584.104065,457.725891 584.229797,457.449615 584.684937,457.130066 
	C584.929932,457.196838 584.963379,457.360535 584.940430,457.768433 
z"/>
<path fill="#002D0A" opacity="1.000000" stroke="none" 
	d="
M895.839844,529.935913 
	C895.666565,529.968933 895.370911,529.758423 894.989807,529.282471 
	C895.175415,529.242126 895.446411,529.467224 895.839844,529.935913 
z"/>
<path fill="#002D0A" opacity="1.000000" stroke="none" 
	d="
M967.925598,506.863831 
	C967.741516,506.931946 967.901733,506.467743 968.040039,506.264771 
	C968.278137,506.274170 968.377991,506.486542 968.477844,506.698883 
	C968.355103,506.731171 968.232422,506.763428 967.925598,506.863831 
z"/>
<path fill="#0C4220" opacity="1.000000" stroke="none" 
	d="
M687.836304,530.953308 
	C687.608459,531.025330 687.302856,530.814697 686.900024,530.336426 
	C687.121399,530.269348 687.440002,530.470032 687.836304,530.953308 
z"/>
<path fill="#0C4220" opacity="1.000000" stroke="none" 
	d="
M702.906799,530.140137 
	C702.960510,530.340332 702.758850,530.638550 702.294067,531.018677 
	C702.237732,530.813171 702.444580,530.525696 702.906799,530.140137 
z"/>
<path fill="#0C4220" opacity="1.000000" stroke="none" 
	d="
M806.284546,543.875916 
	C806.559937,543.754761 806.902283,543.948486 807.350220,544.425171 
	C807.087708,544.535583 806.719543,544.363220 806.284546,543.875916 
z"/>
<path fill="#0C4220" opacity="1.000000" stroke="none" 
	d="
M513.129883,538.718018 
	C513.329224,538.708679 513.637207,539.014282 514.020142,539.649902 
	C513.809570,539.664246 513.523987,539.348633 513.129883,538.718018 
z"/>
<path fill="#0C4220" opacity="1.000000" stroke="none" 
	d="
M803.861694,541.119629 
	C804.018188,540.993652 804.328186,541.202087 804.409241,541.370178 
	C804.228577,541.440735 803.966858,541.343201 803.861694,541.119629 
z"/>
<path fill="#0C4220" opacity="1.000000" stroke="none" 
	d="
M515.180664,542.000488 
	C515.389832,541.944336 515.699280,542.170776 516.130371,542.665894 
	C515.928284,542.717346 515.604614,542.500244 515.180664,542.000488 
z"/>
<path fill="#0C4220" opacity="1.000000" stroke="none" 
	d="
M804.298828,541.880493 
	C804.570740,541.784302 804.891785,542.005859 805.320068,542.512695 
	C805.067505,542.598022 804.707703,542.398071 804.298828,541.880493 
z"/>
<path fill="#0C4220" opacity="1.000000" stroke="none" 
	d="
M805.263916,542.897583 
	C805.528564,542.789978 805.870117,542.994507 806.325439,543.483154 
	C806.073181,543.581421 805.706970,543.395569 805.263916,542.897583 
z"/>
<path fill="#0C4220" opacity="1.000000" stroke="none" 
	d="
M517.168701,544.044189 
	C517.364746,543.996216 517.673218,544.214050 518.096558,544.697144 
	C517.901367,544.744934 517.591248,544.527527 517.168701,544.044189 
z"/>
<path fill="#2F5E42" opacity="1.000000" stroke="none" 
	d="
M124.185944,514.184448 
	C128.897995,506.143402 133.354172,498.375519 137.919846,490.672546 
	C142.327698,483.235840 146.848526,475.866089 151.722305,467.800720 
	C159.607468,481.000305 167.300430,493.878174 175.360397,507.370392 
	C151.597031,521.906311 127.975822,536.355286 104.354607,550.804260 
	C104.012573,550.484802 103.670540,550.165344 103.328514,549.845825 
	C110.211670,538.059265 117.094818,526.272644 124.185944,514.184448 
z"/>
<path fill="#316044" opacity="1.000000" stroke="none" 
	d="
M632.052002,514.985535 
	C636.537659,521.002808 634.927612,526.659363 627.149658,529.793091 
	C621.085510,530.171204 615.642761,530.782166 609.955627,531.420593 
	C609.955627,525.929871 610.050110,521.330750 609.920288,516.737976 
	C609.842102,513.974792 610.892639,512.662476 613.690247,512.965149 
	C619.812012,513.627319 625.931580,514.310791 632.052002,514.985535 
z"/>
<path fill="#316044" opacity="1.000000" stroke="none" 
	d="
M630.358154,486.197479 
	C629.260437,490.252960 627.106689,493.265106 621.964111,493.659973 
	C617.025757,493.123383 612.771729,492.926941 608.029968,492.708008 
	C608.029968,486.893188 608.029968,481.455505 608.495178,476.005066 
	C614.731262,475.915253 620.502075,475.838165 626.272949,475.761078 
	C626.272949,475.761078 626.127319,475.778656 626.240967,476.029846 
	C626.956604,476.486542 627.558533,476.692017 628.160522,476.897491 
	C628.160522,476.897491 628.069946,476.922577 628.161011,477.134644 
	C628.548889,477.545258 628.845703,477.743774 629.142578,477.942291 
	C629.142578,477.942291 629.060974,477.935913 629.039062,478.347900 
	C629.464233,481.239075 629.911194,483.718292 630.358154,486.197479 
z"/>
<path fill="#1C4F30" opacity="1.000000" stroke="none" 
	d="
M631.980713,514.625488 
	C625.931580,514.310791 619.812012,513.627319 613.690247,512.965149 
	C610.892639,512.662476 609.842102,513.974792 609.920288,516.737976 
	C610.050110,521.330750 609.955627,525.929871 609.955627,531.420593 
	C615.642761,530.782166 621.085510,530.171204 626.779785,529.810181 
	C623.797791,530.725525 620.590454,531.638428 617.323059,531.985107 
	C614.205994,532.315796 611.026306,532.056335 607.538818,532.056335 
	C607.538818,524.853943 607.538818,517.818237 607.538818,509.726776 
	C614.323669,510.222961 621.023804,510.548035 627.671265,511.324585 
	C629.177917,511.500580 630.501526,513.243652 631.980713,514.625488 
z"/>
<path fill="#002D0A" opacity="1.000000" stroke="none" 
	d="
M608.029907,476.017853 
	C608.029968,481.455505 608.029968,486.893188 608.029968,492.708008 
	C612.771729,492.926941 617.025757,493.123383 621.597534,493.572937 
	C616.961243,493.826080 612.007263,493.826080 607.085815,493.826080 
	C607.085815,487.174225 607.085815,480.750732 607.526001,474.566772 
	C607.987427,475.210175 608.008667,475.614014 608.029907,476.017853 
z"/>
<path fill="#1C4F30" opacity="1.000000" stroke="none" 
	d="
M608.495117,476.005066 
	C608.008667,475.614014 607.987427,475.210175 607.966187,474.503113 
	C613.882507,474.523529 619.798706,474.847168 625.993896,475.465942 
	C620.502075,475.838165 614.731262,475.915253 608.495117,476.005066 
z"/>
<path fill="#0C4220" opacity="1.000000" stroke="none" 
	d="
M657.251160,520.507568 
	C661.045410,524.875977 657.998962,529.175293 655.913513,533.687073 
	C656.079590,529.518127 656.621277,525.240417 657.251160,520.507568 
z"/>
<path fill="#1C4F30" opacity="1.000000" stroke="none" 
	d="
M630.615601,485.912598 
	C629.911194,483.718292 629.464233,481.239075 629.051636,478.308899 
	C629.681763,480.447906 630.277405,483.037811 630.615601,485.912598 
z"/>
<path fill="#316044" opacity="1.000000" stroke="none" 
	d="
M643.152588,547.090454 
	C643.364685,548.248474 643.219482,549.374084 643.074280,550.499695 
	C642.421265,549.954041 641.768311,549.408386 641.056458,548.520386 
	C641.596863,547.804749 642.196106,547.431458 643.152588,547.090454 
z"/>
<path fill="#0C4220" opacity="1.000000" stroke="none" 
	d="
M656.794983,516.423157 
	C657.046509,516.878845 657.338318,517.696655 657.403442,518.725525 
	C657.062988,518.219421 656.949097,517.502380 656.794983,516.423157 
z"/>
<path fill="#0C4220" opacity="1.000000" stroke="none" 
	d="
M655.698120,513.445984 
	C656.050476,513.887207 656.480774,514.665710 656.898315,515.825195 
	C656.515686,515.398438 656.145874,514.590881 655.698120,513.445984 
z"/>
<path fill="#0C4220" opacity="1.000000" stroke="none" 
	d="
M653.708435,537.078613 
	C653.717407,537.478333 653.479736,538.067871 652.942078,538.792480 
	C652.915344,538.374573 653.188599,537.821411 653.708435,537.078613 
z"/>
<path fill="#0C4220" opacity="1.000000" stroke="none" 
	d="
M654.725708,510.923523 
	C655.164490,511.192413 655.511780,511.843170 655.840332,512.877197 
	C655.425842,512.608704 655.029968,511.957031 654.725708,510.923523 
z"/>
<path fill="#0C4220" opacity="1.000000" stroke="none" 
	d="
M655.360352,533.861755 
	C655.482910,534.311218 655.367126,534.963013 654.913940,535.744812 
	C654.758423,535.271240 654.940247,534.667664 655.360352,533.861755 
z"/>
<path fill="#1C4F30" opacity="1.000000" stroke="none" 
	d="
M627.998901,476.635681 
	C627.558533,476.692017 626.956604,476.486542 626.258789,475.958679 
	C626.721069,475.882202 627.279114,476.128052 627.998901,476.635681 
z"/>
<path fill="#0C4220" opacity="1.000000" stroke="none" 
	d="
M654.559204,535.765869 
	C654.687317,535.995850 654.556885,536.357300 654.163696,536.844666 
	C654.034119,536.612793 654.167358,536.255127 654.559204,535.765869 
z"/>
<path fill="#1C4F30" opacity="1.000000" stroke="none" 
	d="
M629.061279,477.677063 
	C628.845703,477.743774 628.548889,477.545258 628.159790,477.087708 
	C628.371765,477.023071 628.675903,477.217468 629.061279,477.677063 
z"/>
<path fill="#1C4F30" opacity="1.000000" stroke="none" 
	d="
M297.206909,506.817932 
	C298.129547,509.048279 299.052216,511.278656 300.104340,513.822021 
	C292.573639,513.822021 285.503296,513.822021 277.874420,513.822021 
	C281.351898,503.431915 284.773438,493.208832 288.550781,481.922729 
	C289.954010,485.863647 291.053619,488.951874 292.127014,492.471008 
	C292.100769,492.901947 291.984283,493.010651 291.676758,492.868347 
	C290.581512,491.604950 289.793793,490.483887 288.586243,488.765350 
	C285.761261,497.011322 283.177429,504.553345 280.685486,511.827148 
	C285.926300,511.827148 291.157227,511.827148 296.664978,511.827148 
	C296.790863,509.918365 296.886719,508.464539 297.038940,506.962769 
	C297.095245,506.914886 297.206909,506.817932 297.206909,506.817932 
z"/>
<path fill="#1C4F30" opacity="1.000000" stroke="none" 
	d="
M292.158691,492.847229 
	C293.592072,496.466309 294.967560,500.140137 296.313751,504.280182 
	C296.284424,504.746399 295.996338,505.002136 295.708862,504.792786 
	C294.275696,500.725830 293.129974,496.868256 291.984283,493.010651 
	C291.984283,493.010651 292.100769,492.901947 292.158691,492.847229 
z"/>
<path fill="#1C4F30" opacity="1.000000" stroke="none" 
	d="
M296.440857,504.634033 
	C296.791931,505.085022 296.986603,505.648407 297.194092,506.514832 
	C297.206909,506.817932 297.095245,506.914886 296.783020,506.805969 
	C296.312653,506.132111 296.154510,505.567108 295.996338,505.002136 
	C295.996338,505.002136 296.284424,504.746399 296.440857,504.634033 
z"/>
<path fill="#316044" opacity="1.000000" stroke="none" 
	d="
M823.960144,501.417847 
	C828.767456,498.936707 833.525940,499.209686 838.782227,502.033020 
	C839.682251,502.358612 840.045776,502.322083 840.409241,502.285522 
	C840.409241,502.285522 840.524292,502.375671 840.494324,502.738586 
	C840.809448,503.245514 841.154602,503.389496 841.499695,503.533478 
	C841.499695,503.533478 841.489197,503.715820 841.433838,503.932556 
	C841.671143,504.392914 841.963745,504.636536 842.256348,504.880188 
	C842.256348,504.880188 842.137390,504.887817 842.121948,505.169617 
	C842.494080,505.931702 842.881653,506.411987 843.269226,506.892242 
	C843.269226,506.892242 843.137512,506.897827 843.093750,507.318420 
	C843.118652,513.589050 843.187317,519.439026 843.255981,525.289062 
	C843.255981,525.289062 843.200439,525.138245 842.915649,525.203064 
	C842.097839,526.535767 841.564819,527.803650 841.031860,529.071533 
	C841.031860,529.071533 841.000183,529.013000 840.696167,529.041260 
	C840.066895,529.563110 839.741699,530.056702 839.416443,530.550293 
	C839.416443,530.550293 839.004333,530.319885 838.811096,530.282410 
	C833.379822,530.511719 828.141846,530.778503 822.903809,531.045288 
	C822.903809,531.045227 822.971924,531.018494 822.851562,530.803589 
	C822.405029,530.413452 822.078796,530.238159 821.752563,530.062866 
	C821.421143,530.096191 821.172180,529.968567 821.006042,529.065796 
	C820.137329,527.322876 819.268311,526.194153 818.399231,525.065430 
	C818.124268,524.917419 817.993652,524.687439 818.338379,523.881836 
	C819.315125,516.807983 819.960815,510.227753 820.606445,503.647522 
	C820.606506,503.647522 820.735535,503.813995 820.954956,503.714233 
	C821.313354,503.253479 821.452332,502.892517 821.591370,502.531555 
	C821.591370,502.531555 821.692261,502.465179 821.930725,502.603394 
	C822.766174,502.300354 823.363159,501.859100 823.960144,501.417847 
z"/>
<path fill="#1C4F30" opacity="1.000000" stroke="none" 
	d="
M820.333740,503.881561 
	C819.960815,510.227753 819.315125,516.807983 818.384888,523.679199 
	C816.076111,517.087524 816.457642,510.442474 820.333740,503.881561 
z"/>
<path fill="#1C4F30" opacity="1.000000" stroke="none" 
	d="
M843.538818,525.014160 
	C843.187317,519.439026 843.118652,513.589050 843.109802,507.254486 
	C846.259277,512.655518 844.916138,518.701904 843.538818,525.014160 
z"/>
<path fill="#0C4220" opacity="1.000000" stroke="none" 
	d="
M823.138306,531.332397 
	C828.141846,530.778503 833.379822,530.511719 839.017456,530.390015 
	C834.300903,534.328552 828.905457,533.989136 823.138306,531.332397 
z"/>
<path fill="#0C4220" opacity="1.000000" stroke="none" 
	d="
M818.517273,525.404663 
	C819.268311,526.194153 820.137329,527.322876 820.970581,528.848145 
	C820.168274,528.077759 819.401794,526.910828 818.517273,525.404663 
z"/>
<path fill="#0C4220" opacity="1.000000" stroke="none" 
	d="
M841.311279,528.887085 
	C841.564819,527.803650 842.097839,526.535767 842.995972,525.201782 
	C842.770996,526.324646 842.180908,527.513672 841.311279,528.887085 
z"/>
<path fill="#1C4F30" opacity="1.000000" stroke="none" 
	d="
M823.684570,501.458923 
	C823.363159,501.859100 822.766174,502.300354 821.872192,502.618896 
	C822.186462,502.164124 822.797668,501.832062 823.684570,501.458923 
z"/>
<path fill="#1C4F30" opacity="1.000000" stroke="none" 
	d="
M843.217041,506.580139 
	C842.881653,506.411987 842.494080,505.931702 842.137695,505.112122 
	C842.500916,505.271210 842.832947,505.769592 843.217041,506.580139 
z"/>
<path fill="#0C4220" opacity="1.000000" stroke="none" 
	d="
M839.680237,530.425415 
	C839.741699,530.056702 840.066895,529.563110 840.728455,529.049316 
	C840.691162,529.453003 840.317627,529.876770 839.680237,530.425415 
z"/>
<path fill="#1C4F30" opacity="1.000000" stroke="none" 
	d="
M821.354126,502.661682 
	C821.452332,502.892517 821.313354,503.253479 820.865356,503.658875 
	C820.743286,503.399445 820.930115,503.095642 821.354126,502.661682 
z"/>
<path fill="#1C4F30" opacity="1.000000" stroke="none" 
	d="
M842.181396,504.617828 
	C841.963745,504.636536 841.671143,504.392914 841.404236,503.846130 
	C841.655457,503.813843 841.880920,504.084686 842.181396,504.617828 
z"/>
<path fill="#1C4F30" opacity="1.000000" stroke="none" 
	d="
M840.201660,502.055908 
	C840.045776,502.322083 839.682251,502.358612 839.147217,502.157776 
	C839.315125,501.889038 839.654663,501.857635 840.201660,502.055908 
z"/>
<path fill="#1C4F30" opacity="1.000000" stroke="none" 
	d="
M841.399780,503.321777 
	C841.154602,503.389496 840.809448,503.245514 840.538940,502.796509 
	C840.905579,502.627380 841.134338,502.833557 841.399780,503.321777 
z"/>
<path fill="#0C4220" opacity="1.000000" stroke="none" 
	d="
M821.889038,530.307739 
	C822.078796,530.238159 822.405029,530.413452 822.853638,530.840088 
	C822.659180,530.911865 822.342346,530.732239 821.889038,530.307739 
z"/>
<path fill="#316044" opacity="1.000000" stroke="none" 
	d="
M391.965271,502.864807 
	C397.035217,497.993500 402.933838,499.187500 408.444885,501.302521 
	C414.480621,503.618988 415.201782,509.411194 415.583038,515.029480 
	C415.637970,515.838745 415.300140,516.667725 415.289642,517.489441 
	C415.115021,531.175659 408.027100,533.793030 395.127686,531.453308 
	C394.048157,530.624207 393.414948,530.341003 392.781738,530.057739 
	C392.447723,530.092896 392.194824,529.966187 391.887054,529.195801 
	C391.475006,528.484924 391.198944,528.255798 390.922913,528.026733 
	C390.922913,528.026733 390.993530,528.027344 390.934448,527.738464 
	C390.521301,526.982727 390.167267,526.515930 389.813232,526.049072 
	C389.813232,526.049072 389.931763,526.057495 389.953857,525.670532 
	C389.887512,519.114319 389.799042,512.945129 389.710571,506.775909 
	C389.710571,506.775909 389.563690,506.871490 389.879639,506.732941 
	C390.364136,505.947083 390.532654,505.299805 390.701202,504.652496 
	C390.701202,504.652496 390.754852,504.844238 390.989258,504.750824 
	C391.470856,504.059875 391.718048,503.462341 391.965271,502.864807 
z"/>
<path fill="#0C4220" opacity="1.000000" stroke="none" 
	d="
M389.402740,506.987701 
	C389.799042,512.945129 389.887512,519.114319 389.939880,525.728271 
	C386.600006,519.977844 387.461060,513.605164 389.402740,506.987701 
z"/>
<path fill="#0C4220" opacity="1.000000" stroke="none" 
	d="
M389.879883,526.343872 
	C390.167267,526.515930 390.521301,526.982727 390.919678,527.770508 
	C390.624878,527.607239 390.285736,527.122986 389.879883,526.343872 
z"/>
<path fill="#0C4220" opacity="1.000000" stroke="none" 
	d="
M390.449554,504.832031 
	C390.532654,505.299805 390.364136,505.947083 389.834412,506.657898 
	C389.714783,506.151428 389.956360,505.581482 390.449554,504.832031 
z"/>
<path fill="#0C4220" opacity="1.000000" stroke="none" 
	d="
M391.684570,503.008850 
	C391.718048,503.462341 391.470856,504.059875 390.889771,504.745972 
	C390.838593,504.273956 391.121216,503.713409 391.684570,503.008850 
z"/>
<path fill="#0C4220" opacity="1.000000" stroke="none" 
	d="
M392.963043,530.348633 
	C393.414948,530.341003 394.048157,530.624207 394.816956,531.252808 
	C394.349792,531.278625 393.747070,530.959106 392.963043,530.348633 
z"/>
<path fill="#0C4220" opacity="1.000000" stroke="none" 
	d="
M390.993408,528.297852 
	C391.198944,528.255798 391.475006,528.484924 391.848022,528.976440 
	C391.651306,529.015625 391.357635,528.792297 390.993408,528.297852 
z"/>
<path fill="#316044" opacity="1.000000" stroke="none" 
	d="
M389.290588,544.410278 
	C389.306305,544.738281 389.119354,544.838501 388.618958,544.993591 
	C388.566315,544.759827 388.827118,544.471130 389.290588,544.410278 
z"/>
<path fill="#316044" opacity="1.000000" stroke="none" 
	d="
M549.767212,530.768677 
	C545.571838,533.043213 541.913391,537.000671 537.110352,533.991394 
	C534.971313,532.651184 531.938782,529.351257 532.401123,527.989685 
	C533.221191,525.574219 536.168274,522.733704 538.638123,522.270203 
	C543.410034,521.374634 548.469116,522.008789 553.598938,522.008789 
	C554.962219,525.886047 553.256470,528.496521 549.767212,530.768677 
z"/>
<path fill="#2F5E42" opacity="1.000000" stroke="none" 
	d="
M893.913208,503.353577 
	C898.688782,495.041260 908.337463,494.285736 915.046570,502.437988 
	C915.046387,504.388916 915.046387,505.600647 915.046387,506.973114 
	C908.971313,506.973114 903.369385,506.871613 897.773865,507.016724 
	C895.046814,507.087402 893.743835,506.112488 893.913208,503.353577 
z"/>
<path fill="#0C4220" opacity="1.000000" stroke="none" 
	d="
M893.604065,503.629211 
	C893.743835,506.112488 895.046814,507.087402 897.773865,507.016724 
	C903.369385,506.871613 908.971313,506.973114 915.046387,506.973114 
	C915.046387,505.600647 915.046387,504.388916 915.066772,502.763794 
	C915.890137,504.056274 916.693115,505.762085 917.703613,507.908875 
	C908.777893,507.908875 900.661316,507.908875 892.005432,507.908875 
	C892.460632,506.495422 892.877747,505.200165 893.604065,503.629211 
z"/>
<path fill="#316044" opacity="1.000000" stroke="none" 
	d="
M649.624512,505.323364 
	C649.638184,504.481689 649.992737,503.555511 649.720825,502.882324 
	C647.881714,498.328491 649.605103,496.438141 654.289490,496.552307 
	C655.167480,498.579285 656.053711,500.625366 657.192566,503.254761 
	C654.790466,503.952240 652.668823,504.568298 650.147339,505.318726 
	C649.747559,505.453125 649.675476,505.355957 649.624512,505.323364 
z"/>
<path fill="#316044" opacity="1.000000" stroke="none" 
	d="
M660.408325,510.262817 
	C659.044800,509.112335 657.881287,507.725983 656.717712,506.339661 
	C657.339050,505.953125 657.960327,505.566589 658.581665,505.180054 
	C659.257263,506.795685 659.932800,508.411316 660.408325,510.262817 
z"/>
<path fill="#316044" opacity="1.000000" stroke="none" 
	d="
M662.411438,540.527466 
	C662.756348,539.691040 663.253540,539.146362 663.750793,538.601685 
	C664.096130,539.291260 664.441406,539.980835 664.786743,540.670410 
	C664.045715,540.720032 663.304749,540.769653 662.411438,540.527466 
z"/>
<path fill="#316044" opacity="1.000000" stroke="none" 
	d="
M661.713196,535.480896 
	C661.891113,534.919983 662.269775,534.567261 662.648438,534.214600 
	C662.915222,534.523560 663.181946,534.832520 663.448730,535.141479 
	C662.937134,535.323975 662.425476,535.506531 661.713196,535.480896 
z"/>
<path fill="#FEFEFE" opacity="1.000000" stroke="none" 
	d="
M337.757080,458.479309 
	C338.205841,457.102234 338.714386,455.406799 339.275726,455.389099 
	C345.201050,455.202698 351.135590,455.245239 357.064789,455.364716 
	C357.535431,455.374176 357.985046,456.427979 358.461517,457.505371 
	C358.384338,467.295715 358.228241,476.576996 358.208374,485.858582 
	C358.163940,506.602997 358.187378,527.347534 358.120422,548.558350 
	C352.169952,549.157227 346.277893,549.435791 340.399170,549.262390 
	C339.532745,549.236877 338.729523,547.069580 337.798370,545.437378 
	C337.746918,516.301025 337.794159,487.620453 337.757080,458.479309 
z"/>
<path fill="#316044" opacity="1.000000" stroke="none" 
	d="
M295.708862,504.792786 
	C296.154510,505.567108 296.312653,506.132111 296.726685,506.853882 
	C296.886719,508.464539 296.790863,509.918365 296.664978,511.827148 
	C291.157227,511.827148 285.926300,511.827148 280.685486,511.827148 
	C283.177429,504.553345 285.761261,497.011322 288.586243,488.765350 
	C289.793793,490.483887 290.581512,491.604950 291.676758,492.868347 
	C293.129974,496.868256 294.275696,500.725830 295.708862,504.792786 
z"/>
</svg>