<?xml version="1.0" standalone="no"?>
<!DOCTYPE svg PUBLIC "-//W3C//DTD SVG 20010904//EN"
 "http://www.w3.org/TR/2001/REC-SVG-20010904/DTD/svg10.dtd">
<svg version="1.0" xmlns="http://www.w3.org/2000/svg"
 width="1024.000000pt" height="1024.000000pt" viewBox="0 0 1024.000000 1024.000000"
 preserveAspectRatio="xMidYMid meet">

<g transform="translate(0.000000,1024.000000) scale(0.100000,-0.100000)"
fill="#000000" stroke="none">
<path d="M1600 6188 c-13 -24 -71 -128 -130 -233 -59 -104 -192 -341 -295
-525 -103 -184 -243 -432 -310 -550 -176 -310 -405 -720 -405 -725 0 -3 119
-5 263 -5 l264 0 199 129 c109 71 361 232 559 357 198 125 387 244 420 265 33
21 102 65 154 97 l93 59 48 124 48 124 -103 3 c-98 3 -108 1 -163 -27 l-59
-30 -33 62 c-18 34 -119 215 -223 402 -105 187 -211 378 -237 424 -25 47 -50
86 -56 88 -6 2 -21 -16 -34 -39z m123 -130 c46 -84 125 -225 174 -313 49 -88
132 -236 183 -330 51 -93 95 -172 96 -174 2 -2 35 10 72 27 60 28 79 32 155
32 48 0 87 -3 87 -7 -1 -5 -20 -57 -43 -118 -42 -109 -42 -110 -99 -145 -189
-115 -931 -586 -1261 -800 l-99 -64 -251 2 c-138 1 -253 4 -255 7 -2 2 5 16
15 32 11 15 78 132 148 258 70 127 131 235 135 240 4 6 39 66 77 135 86 154
384 683 589 1047 85 149 159 283 165 297 7 14 15 26 19 26 4 0 46 -69 93 -152z"/>
<path d="M1607 5598 c-39 -69 -230 -416 -277 -503 -24 -44 -87 -159 -140 -255
-104 -186 -153 -280 -147 -280 7 0 820 494 879 534 15 11 2 37 -112 241 -156
279 -150 268 -157 261 -3 -3 -1 -11 4 -18 16 -20 265 -470 261 -472 -2 -1 -68
-42 -148 -91 -80 -49 -248 -152 -375 -229 -281 -173 -325 -198 -325 -191 0 3
23 47 51 97 28 51 65 118 82 148 16 30 49 89 72 130 23 41 113 204 200 362 87
158 161 285 166 282 5 -3 6 2 3 10 -9 22 -10 21 -37 -26z"/>
<path d="M3185 5527 c-8 -12 -25 -52 -38 -87 -22 -60 -101 -261 -219 -560 -27
-69 -58 -147 -68 -175 l-19 -50 97 -3 c52 -1 101 -1 108 2 6 2 21 31 32 63 12
32 27 76 35 98 l15 40 163 0 164 0 23 -65 c12 -36 30 -82 39 -102 l16 -38 104
0 c56 0 103 1 103 3 0 4 -55 147 -201 524 l-144 373 -97 0 c-91 0 -99 -2 -113
-23z m205 3 c0 -5 21 -63 46 -127 25 -65 70 -179 99 -253 87 -222 185 -478
185 -484 0 -3 -40 -6 -89 -6 l-89 0 -22 58 c-12 31 -30 77 -39 102 l-17 45
-173 0 -173 0 -25 -65 c-13 -36 -29 -82 -35 -102 l-10 -38 -94 0 c-52 0 -94 2
-94 5 0 4 83 217 256 658 l86 217 94 0 c55 0 94 -4 94 -10z"/>
<path d="M3290 5343 c0 -6 -3 -19 -7 -29 -4 -10 -2 -15 3 -11 6 3 19 -20 29
-51 11 -31 32 -90 47 -130 15 -40 28 -77 28 -83 0 -5 -45 -9 -101 -9 -92 0
-101 2 -94 18 42 100 85 226 82 235 -2 7 -10 -6 -17 -28 -7 -22 -28 -79 -46
-127 -19 -48 -34 -93 -34 -100 0 -10 29 -13 115 -13 63 0 115 3 115 7 0 6 -48
142 -101 283 -10 28 -18 45 -19 38z"/>
<path d="M3790 5100 l0 -450 95 0 95 0 0 450 0 450 -95 0 -95 0 0 -450z m176
424 c-3 -9 -6 -207 -6 -440 l0 -424 -80 0 -80 0 0 440 0 440 86 0 c74 0 85 -2
80 -16z"/>
<path d="M4810 5100 l0 -450 94 0 95 0 3 225 3 225 26 25 c47 48 134 49 175 4
17 -19 19 -41 22 -250 l3 -229 95 0 94 0 -5 243 c-3 133 -9 257 -14 274 -21
73 -93 134 -174 148 -58 11 -142 -3 -182 -31 -20 -13 -38 -24 -40 -24 -3 0 -5
65 -5 145 l0 145 -95 0 -95 0 0 -450z m180 284 l0 -156 31 26 c92 78 257 66
332 -24 41 -48 47 -89 47 -337 l0 -233 -80 0 -80 0 0 213 c0 182 -3 217 -18
247 -37 75 -159 76 -209 1 -22 -33 -23 -42 -23 -247 l0 -214 -85 0 -85 0 0
433 c0 239 3 437 7 440 3 4 42 7 85 7 l78 0 0 -156z"/>
<path d="M6200 5101 l0 -451 238 0 c310 0 358 14 419 118 25 42 28 57 28 137
0 77 -3 95 -24 128 -13 21 -41 50 -62 64 l-39 26 39 38 c83 80 82 220 -2 307
-70 73 -85 77 -354 80 l-243 4 0 -451z m510 413 c141 -65 184 -238 84 -338
-19 -19 -44 -38 -55 -41 -22 -7 -16 -25 9 -25 24 0 89 -56 109 -93 26 -49 24
-180 -4 -232 -27 -50 -57 -79 -108 -102 -34 -15 -77 -18 -287 -21 l-248 -4 0
442 0 442 228 -4 c205 -3 231 -5 272 -24z"/>
<path d="M6380 5284 l0 -117 108 5 c119 5 166 22 182 64 26 68 -2 136 -63 152
-18 5 -76 10 -129 11 l-98 2 0 -117z m253 76 c30 -24 43 -74 28 -112 -17 -44
-57 -58 -171 -58 l-100 0 0 95 0 95 109 0 c94 0 112 -3 134 -20z"/>
<path d="M6380 4925 l0 -135 103 0 c167 0 216 26 225 118 10 110 -49 151 -220
152 l-108 0 0 -135z m284 86 c32 -30 44 -97 24 -137 -25 -52 -53 -62 -180 -70
l-118 -7 0 122 0 123 124 -4 c115 -3 126 -5 150 -27z"/>
<path d="M7714 5535 c-12 -8 -27 -28 -34 -44 -27 -65 22 -131 97 -131 96 0
147 51 123 124 -6 19 -22 41 -35 50 -31 20 -123 21 -151 1z m151 -20 c31 -30
34 -86 6 -114 -43 -43 -138 -37 -174 11 -24 32 -18 68 18 104 35 35 116 34
150 -1z"/>
<path d="M7980 5100 l0 -450 95 0 95 0 0 450 0 450 -95 0 -95 0 0 -450z m172
-3 l3 -437 -82 0 -83 0 0 440 0 441 80 -3 80 -3 2 -438z"/>
<path d="M8707 5543 c-11 -11 -8 -311 3 -318 7 -4 10 50 10 154 l0 161 80 0
80 0 0 -440 0 -440 -80 0 -80 0 0 35 0 35 -44 -34 c-60 -46 -121 -60 -199 -46
-165 30 -244 145 -235 345 3 74 9 102 31 148 70 141 233 201 367 135 61 -30
66 -21 8 12 -59 34 -183 35 -245 2 -69 -36 -111 -80 -145 -151 -30 -61 -32
-73 -32 -166 1 -120 24 -192 83 -253 99 -102 264 -120 364 -41 l37 30 0 -31 0
-30 90 0 90 0 0 450 0 450 -88 0 c-49 0 -92 -3 -95 -7z"/>
<path d="M4356 5306 c-22 -8 -52 -24 -67 -35 l-28 -21 -3 28 -3 27 -92 3 -93
3 0 -461 0 -460 100 0 100 0 0 144 0 143 42 -20 c108 -54 241 -25 327 69 62
67 84 133 84 249 0 146 -48 248 -146 309 -57 35 -158 45 -221 22z m161 -11
c66 -20 134 -80 164 -147 21 -47 24 -68 24 -173 -1 -138 -10 -169 -75 -239
-51 -55 -109 -84 -179 -90 -64 -5 -116 8 -158 40 -17 13 -34 24 -37 24 -3 0
-6 -70 -6 -155 l0 -155 -82 0 -83 0 3 450 2 451 78 -3 77 -3 3 -33 3 -32 34
26 c67 51 147 64 232 39z"/>
<path d="M4340 5161 c-73 -40 -94 -89 -88 -204 5 -95 24 -138 69 -161 48 -24
119 -21 160 7 91 61 90 283 -2 350 -38 27 -97 31 -139 8z m134 -22 c36 -28 54
-67 62 -132 9 -74 -16 -157 -57 -191 -56 -47 -151 -30 -196 34 -21 29 -29 151
-14 207 17 62 68 103 130 103 34 0 56 -6 75 -21z"/>
<path d="M5707 5305 c-104 -29 -171 -100 -171 -184 l-1 -46 76 -3 77 -3 18 38
c26 53 85 74 146 53 31 -11 44 -22 51 -44 8 -25 6 -32 -12 -47 -12 -10 -47
-21 -79 -24 -174 -21 -264 -61 -301 -137 -68 -141 38 -278 214 -278 59 0 104
13 157 47 l38 23 6 -25 c6 -24 9 -25 96 -25 82 0 89 2 82 18 -4 9 -10 123 -13
252 -5 212 -8 239 -27 275 -51 99 -215 149 -357 110z m268 -40 c89 -56 89 -55
96 -318 4 -128 12 -244 18 -259 l11 -28 -79 0 -79 0 -7 30 c-7 34 -16 37 -36
13 -19 -22 -85 -50 -139 -58 -92 -13 -202 32 -237 97 -27 52 -22 139 10 182
38 50 115 83 230 100 129 20 152 31 152 76 0 28 -6 38 -34 57 -65 44 -154 24
-185 -42 l-17 -35 -69 0 c-69 0 -70 0 -70 27 0 40 38 110 74 138 58 44 102 55
212 52 93 -2 105 -5 149 -32z"/>
<path d="M5888 4944 c-3 -3 -43 -12 -89 -20 -108 -19 -129 -33 -129 -84 0 -51
33 -76 101 -73 90 3 135 44 146 132 5 41 3 51 -9 51 -8 0 -17 -3 -20 -6z m12
-55 c-9 -71 -41 -101 -114 -107 -70 -6 -106 14 -106 58 0 40 31 58 117 72 37
5 75 14 83 19 25 14 27 11 20 -42z"/>
<path d="M9210 5306 c-89 -23 -163 -92 -207 -191 -27 -61 -25 -234 4 -296 30
-66 86 -124 151 -156 50 -25 68 -28 152 -28 84 0 102 3 152 28 31 15 70 43 87
62 29 34 55 100 45 117 -3 4 -38 8 -78 8 -65 0 -75 -3 -96 -25 -47 -51 -139
-57 -194 -14 -30 24 -56 69 -56 99 0 20 5 20 216 20 l216 0 -4 88 c-3 71 -10
100 -32 145 -60 124 -208 183 -356 143z m219 -27 c98 -43 147 -124 158 -259
l6 -80 -221 0 -221 0 5 -32 c14 -73 62 -124 126 -134 53 -9 103 3 139 34 27
22 44 27 101 30 37 3 68 2 68 -1 0 -3 -8 -25 -19 -49 -41 -94 -130 -142 -261
-142 -105 0 -171 26 -231 91 -75 81 -102 187 -79 308 39 205 243 317 429 234z"/>
<path d="M9233 5160 c-36 -22 -58 -52 -68 -92 l-7 -28 140 0 140 0 -7 33 c-5
18 -13 42 -20 55 -27 51 -120 68 -178 32z m122 -4 c33 -14 65 -59 65 -91 0
-13 -18 -15 -120 -15 -110 0 -120 1 -120 19 0 41 71 99 123 101 10 0 33 -6 52
-14z"/>
<path d="M6982 5043 c3 -253 4 -270 25 -308 24 -44 71 -80 124 -95 83 -24 200
-2 239 45 14 17 15 16 20 -6 6 -23 10 -24 98 -27 l92 -3 0 331 0 330 -95 0
-95 0 0 -215 c0 -231 -5 -256 -52 -289 -32 -23 -110 -21 -139 3 -24 19 -24 21
-27 260 l-4 241 -94 0 -95 0 3 -267z m178 22 l0 -236 25 -24 c20 -21 34 -25
84 -25 53 0 65 4 93 29 l33 29 3 231 3 231 82 0 82 0 0 -288 c-1 -158 -2 -302
-3 -319 l-2 -33 -80 0 -80 0 0 31 0 30 -42 -30 c-116 -81 -273 -58 -336 49
l-27 45 -3 258 -4 257 86 0 86 0 0 -235z"/>
<path d="M7689 5293 c-3 -62 -4 -620 -1 -630 3 -9 32 -13 98 -13 l94 0 0 330
0 330 -95 0 c-83 0 -95 -2 -96 -17z m179 -313 l-2 -320 -83 0 -83 0 0 320 0
320 85 0 86 0 -3 -320z"/>
<path d="M9680 4980 l0 -330 95 0 95 0 0 185 c0 203 7 235 55 273 21 16 41 22
81 22 l54 0 0 91 0 91 -65 -4 c-56 -3 -69 -8 -93 -32 l-27 -29 34 23 c22 15
54 25 88 28 l53 4 0 -78 0 -79 -43 -1 c-53 -1 -94 -20 -121 -57 -19 -26 -21
-44 -24 -228 l-3 -199 -80 0 -79 0 0 310 c0 171 0 313 0 318 0 4 35 7 77 7
l77 0 -2 -50 c-2 -33 1 -45 7 -35 4 8 8 33 7 55 l-2 40 -92 3 -92 3 0 -331z"/>
<path d="M8516 5170 c-38 -12 -73 -46 -98 -94 -17 -33 -20 -53 -16 -112 8
-120 64 -184 160 -184 62 0 100 20 130 67 20 33 23 51 23 128 0 77 -3 95 -23
128 -36 57 -112 86 -176 67z m121 -30 c48 -29 66 -72 66 -160 -1 -136 -48
-195 -151 -187 -68 5 -106 39 -129 116 -26 92 -2 185 60 229 41 28 109 30 154
2z"/>
<path d="M2200 4791 c-75 -40 -126 -73 -128 -83 -3 -15 145 -294 261 -490 l39
-68 169 0 c195 0 190 -4 136 95 -30 53 -141 256 -284 519 -27 49 -53 90 -58
91 -6 1 -66 -28 -135 -64z m320 -286 l180 -330 -161 -3 c-183 -3 -164 -11
-220 93 -17 33 -78 144 -135 246 -57 102 -104 190 -104 195 0 10 240 134 252
131 4 -1 89 -150 188 -332z"/>
</g>
</svg>
